<?xml version="1.0" encoding="utf-8"?>
<!-- Generator: Adobe Illustrator 16.0.0, SVG Export Plug-In . SVG Version: 6.00 Build 0)  -->
<!DOCTYPE svg PUBLIC "-//W3C//DTD SVG 1.1//EN" "http://www.w3.org/Graphics/SVG/1.1/DTD/svg11.dtd">
<svg version="1.1" id="Layer_4_copy" xmlns="http://www.w3.org/2000/svg" xmlns:xlink="http://www.w3.org/1999/xlink" x="0px"
	 y="0px" width="1728px" height="1296px" viewBox="-0.25 -0.75 1728 1296" enable-background="new -0.25 -0.75 1728 1296"
	 xml:space="preserve">
<rect fill="#F8F0CE" width="1727.5" height="1294.5"/>
<g id="Text">
	<g id="HAkron">
		<g id="XMLID_209_">
			<g id="XMLID_230_">
				
					<linearGradient id="XMLID_6_" gradientUnits="userSpaceOnUse" x1="209.2705" y1="1501.3203" x2="206.5512" y2="1408.8643" gradientTransform="matrix(1.9438 0 0 -1.9438 467.5281 3105.1123)">
					<stop  offset="0" style="stop-color:#246596"/>
					<stop  offset="0.8587" style="stop-color:#246596"/>
					<stop  offset="1" style="stop-color:#246596"/>
				</linearGradient>
				<path id="XMLID_235_" fill="url(#XMLID_6_)" stroke="#B7A70F" stroke-width="6" stroke-miterlimit="10" d="M847.611,365.978
					c-7.697,0-13.915-2.368-18.947-7.402c-4.737-4.736-7.105-11.102-7.105-19.244v-75.644c0-21.613,7.4-39.82,21.762-54.18
					c14.95-14.803,32.567-21.909,53.883-21.909c7.697,0,14.063,2.517,19.096,7.698c5.031,5.033,7.697,11.546,7.697,19.096
					c0,11.25-4.736,25.165-27.09,27.089c-6.514,0.592-11.842,2.813-16.135,6.958c-4.146,3.849-6.068,8.881-6.068,15.247v75.644
					c0,7.846-2.666,14.359-7.699,19.392C861.97,363.462,855.457,365.978,847.611,365.978z"/>
			</g>
			<g id="XMLID_211_">
				
					<linearGradient id="XMLID_7_" gradientUnits="userSpaceOnUse" x1="283.9414" y1="1500.9482" x2="281.232" y2="1408.8289" gradientTransform="matrix(1.9438 0 0 -1.9438 467.5281 3105.1123)">
					<stop  offset="0" style="stop-color:#246596"/>
					<stop  offset="0.8587" style="stop-color:#246596"/>
					<stop  offset="1" style="stop-color:#246596"/>
				</linearGradient>
				<path id="XMLID_220_" fill="url(#XMLID_7_)" stroke="#B7A70F" stroke-width="6" stroke-miterlimit="10" d="M1016.662,366.718
					c-25.164,0-46.48-8.734-63.652-25.905c-17.172-17.172-25.758-38.636-25.758-63.802c0-25.165,8.734-46.481,25.758-63.653
					c17.172-17.171,38.488-25.758,63.652-25.758c25.166,0,46.631,8.734,63.803,25.758c17.172,17.172,25.906,38.488,25.906,63.653
					c0,25.166-8.734,46.63-25.906,63.802C1063.293,357.984,1041.828,366.718,1016.662,366.718z M1016.662,241.336
					c-9.916,0-18.207,3.405-25.164,10.362s-10.361,15.247-10.361,25.166c0,10.066,3.404,18.355,10.361,25.313
					c6.957,7.106,15.248,10.51,25.164,10.51c9.92,0,18.209-3.404,25.314-10.51c7.105-7.105,10.51-15.396,10.51-25.313
					c0-9.918-3.404-18.208-10.51-25.166C1035.02,244.741,1026.582,241.336,1016.662,241.336z"/>
			</g>
			
				<linearGradient id="XMLID_8_" gradientUnits="userSpaceOnUse" x1="270.9102" y1="1309.2383" x2="268.3716" y2="1222.927" gradientTransform="matrix(1.9438 0 0 -1.9438 467.5281 3105.1123)">
				<stop  offset="0" style="stop-color:#246596"/>
				<stop  offset="0.8587" style="stop-color:#246596"/>
				<stop  offset="1" style="stop-color:#246596"/>
			</linearGradient>
			
				<path id="XMLID_210_" fill="url(#XMLID_8_)" stroke="#B7A70F" stroke-width="6" stroke-linejoin="round" stroke-miterlimit="1" d="
				M1737.5,389.663h-441.945h-1.334c-7.549,0-14.063-2.516-19.242-7.697c-5.182-5.182-7.846-11.547-7.846-19.097v-99.328
				c0-20.28-6.959-37.156-20.725-50.923c-13.916-13.767-30.939-20.725-51.07-20.725c-20.281,0-37.158,6.958-51.072,20.725
				s-20.723,30.791-20.723,50.923v75.644c0,6.662,1.922,11.991,6.068,16.135c4.145,4.146,9.475,6.218,16.135,6.218
				c6.662,0,11.99-2.072,16.135-6.218c4.146-4.145,6.07-9.473,6.07-16.135v-75.644c0-7.55,2.813-13.915,7.994-18.948
				c5.18-5.181,11.695-7.697,19.244-7.697c7.4,0,13.619,2.665,18.799,7.846c5.182,5.181,8.143,11.546,8.143,18.8l0.592,83.638v15.69
				c0,9.771,1.184,19.393,4.293,26.794H832.66h-1.332c-7.55,0-15.691-2.516-20.871-7.697c-5.183-5.182-8.143-11.546-8.143-19.097
				v-39.375c0-23.982-9.473-43.226-29.014-57.732c14.656-14.211,22.058-31.383,22.058-51.663c0-6.662-2.073-11.991-6.218-16.136
				c-4.293-4.145-9.623-6.218-16.284-6.218c-14.951,0.148-22.353,7.846-22.353,23.242c0,7.401-2.664,13.618-7.994,18.8
				c-5.329,5.181-11.694,7.697-19.096,7.549l-14.359-0.296v-94.444c0-6.662-2.073-12.139-6.218-16.284
				c-4.292-4.145-9.621-6.364-16.283-6.364s-11.843,2.072-15.988,6.364c-4.145,4.294-5.92,9.623-5.92,16.284v192.588
				c0,6.662,1.775,11.991,5.92,16.135c4.145,4.145,9.326,6.218,15.988,6.218s11.99-2.073,16.135-6.218
				c4.145-4.145,6.218-9.473,6.218-16.135v-42.781h21.76c7.549,0,13.915,2.813,19.244,7.993c5.181,5.182,7.845,11.695,7.845,19.245
				v39.376c0,9.771,1.628,19.393,4.737,26.794h-88.227h-1.628c-7.55,0-18.06-2.517-23.093-7.698
				c-5.181-5.182-7.253-11.546-7.253-19.097V208.621c0-23.981-8.586-44.113-25.018-60.545c-16.432-16.284-36.86-24.424-60.84-24.424
				c-23.982,0-44.558,8.141-60.989,24.424c-16.284,16.284-24.87,36.564-24.87,60.545v130.711c0,6.662,2.369,11.99,6.514,16.135
				c4.145,4.144,9.622,6.217,16.284,6.217c6.661,0,12.287-2.073,16.579-6.217c4.145-4.145,6.514-9.474,6.514-16.135V208.621
				c0-11.103,3.849-20.577,11.546-28.274c7.846-7.845,17.172-11.694,28.274-11.694c11.103,0,20.576,3.849,28.422,11.694
				c7.846,7.846,11.842,17.172,11.842,28.274c0,11.102-3.997,20.577-11.842,28.57c-7.846,7.846-17.32,11.843-28.57,11.843
				c-6.662,0-11.991,2.072-16.136,6.217c-4.145,4.145-6.217,9.474-6.217,16.135s2.072,12.139,6.217,16.284
				c4.146,4.293,9.326,6.365,15.988,6.365c14.211,0,28.421-3.404,40.265-10.066v79.048c0,9.771,1.776,19.393,5.032,26.794H480.494
				c-7.55,0-19.54-2.517-24.721-7.698c-5.181-5.182-7.549-11.546-7.549-19.097V146.004c0-6.662-2.369-11.991-6.662-16.136
				c-4.292-4.145-9.77-6.216-16.431-6.216s-12.287,2.071-16.432,6.216c-4.145,4.145-6.365,9.474-6.365,16.136v64.541H310.85v-64.541
				c0-6.662-1.776-11.991-5.92-16.136c-4.293-4.145-9.474-6.216-16.136-6.216s-11.991,2.071-16.135,6.216
				c-4.146,4.145-6.069,9.474-6.069,16.136v193.329c0,6.662,2.072,11.99,6.217,16.135c4.145,4.144,9.474,6.217,16.135,6.217
				c6.662,0,11.843-2.073,15.988-6.217c4.145-4.145,6.069-9.474,6.069-16.135v-84.377h91.779v107.914
				c0,20.281,7.105,37.601,21.021,51.516c13.914,13.914,37.007,21.167,57.14,21.167h192.144h1.629h156.765h1.332h461.561h1.334
				H1737.5V389.663z"/>
		</g>
	</g>
	<g id="_x32_.0">
		<g id="XMLID_192_">
			
				<linearGradient id="XMLID_9_" gradientUnits="userSpaceOnUse" x1="348.7695" y1="1300.3633" x2="348.7695" y2="1267.5033" gradientTransform="matrix(1.9438 0 0 -1.9438 467.5281 3105.1123)">
				<stop  offset="0" style="stop-color:#E0AE12"/>
				<stop  offset="0.8587" style="stop-color:#E0AE12"/>
				<stop  offset="1" style="stop-color:#E0AE12"/>
			</linearGradient>
			<path id="XMLID_166_" fill="url(#XMLID_9_)" stroke="#DF5432" stroke-width="6" stroke-miterlimit="10" d="M1145.451,630.657
				c-9.031,0-16.58-3.108-22.799-9.326c-6.217-6.217-9.324-13.914-9.324-22.797c0-8.732,3.256-16.282,9.475-22.5
				c6.215-6.217,13.914-9.326,22.648-9.326c8.732,0,16.281,3.109,22.648,9.326c6.365,6.218,9.475,13.768,9.475,22.5
				c0,9.03-3.109,16.58-9.328,22.797C1162.031,627.549,1154.332,630.657,1145.451,630.657z"/>
		</g>
		<g id="XMLID_26_">
			
				<linearGradient id="XMLID_10_" gradientUnits="userSpaceOnUse" x1="424.3936" y1="1373.2041" x2="424.3936" y2="1245.8691" gradientTransform="matrix(1.9438 0 0 -1.9438 467.5281 3105.1123)">
				<stop  offset="0" style="stop-color:#E0AE12"/>
				<stop  offset="0.3942" style="stop-color:#DEAC12"/>
				<stop  offset="0.3994" style="stop-color:#DEAC12"/>
				<stop  offset="0.9224" style="stop-color:#DEAC12"/>
				<stop  offset="1" style="stop-color:#DEAC12"/>
				<stop  offset="1" style="stop-color:#D9A812"/>
				<stop  offset="1" style="stop-color:#CA9C10"/>
				<stop  offset="1" style="stop-color:#B1890E"/>
				<stop  offset="1" style="stop-color:#8E6E0C"/>
				<stop  offset="1" style="stop-color:#614C08"/>
				<stop  offset="1" style="stop-color:#2C2204"/>
				<stop  offset="1" style="stop-color:#000000"/>
			</linearGradient>
			<path id="XMLID_206_" fill="url(#XMLID_10_)" stroke="#DF5432" stroke-width="6" stroke-miterlimit="10" d="M1292.445,634.358
				c-34.342,0-63.949-12.138-87.783-35.971c-23.832-23.833-35.971-53.439-35.971-87.783c0-34.342,12.139-63.949,35.971-87.782
				c23.834-23.833,53.441-35.971,87.783-35.971c34.344,0,63.949,12.138,87.781,35.971c23.834,23.833,35.973,53.44,35.973,87.782
				c0,34.344-12.139,63.95-35.973,87.783C1356.395,622.22,1326.789,634.358,1292.445,634.358z M1292.445,440.734
				c-20.133,0-36.416,6.513-49.887,19.983c-13.471,13.471-19.984,29.754-19.984,49.886c0,19.837,6.662,36.12,20.133,49.739
				c13.619,13.62,29.902,20.132,49.738,20.132s36.119-6.661,49.738-20.132c13.619-13.619,20.131-29.902,20.131-49.739
				c0-19.836-6.66-36.119-20.131-49.739C1328.418,447.248,1312.281,440.734,1292.445,440.734z"/>
		</g>
		<g id="XMLID_2_">
			
				<linearGradient id="XMLID_11_" gradientUnits="userSpaceOnUse" x1="276.5718" y1="1368.54" x2="276.5718" y2="1253.0253" gradientTransform="matrix(1.9438 0 0 -1.9438 467.5281 3105.1123)">
				<stop  offset="0" style="stop-color:#E0AE12"/>
				<stop  offset="0.8587" style="stop-color:#E0AE12"/>
				<stop  offset="1" style="stop-color:#E0AE12"/>
			</linearGradient>
			<path id="XMLID_149_" fill="url(#XMLID_11_)" stroke="#DF5432" stroke-width="6" stroke-miterlimit="10" d="M943.832,633.619
				c-24.869,0-30.051-12.879-30.051-23.834c0-10.213,5.33-18.947,15.988-26.053c12.877-8.438,27.533-18.504,43.52-30.199
				c17.764-12.731,32.123-24.425,42.93-34.639c17.467-16.579,26.35-30.938,26.35-42.781c0-9.918-3.404-18.208-10.51-25.165
				s-15.396-10.362-25.313-10.362c-9.92,0-18.209,3.405-25.166,10.362c-6.959,6.958-10.361,15.247-10.361,25.165
				c0,7.846-2.518,14.358-7.699,19.54c-5.033,5.033-11.547,7.698-19.539,7.698c-7.846,0-14.359-2.517-19.393-7.698
				c-4.885-5.032-7.4-11.545-7.4-19.391c0-25.166,8.732-46.482,25.756-63.654c17.172-17.171,38.488-25.757,63.654-25.757
				s46.629,8.733,63.801,25.757c17.172,17.172,25.904,38.489,25.904,63.654c0,22.352-9.176,44.113-27.088,64.837
				c-8.588,9.917-22.648,22.945-42.043,38.635h42.043c7.846,0,14.359,2.518,19.539,7.698c5.033,5.034,7.697,11.694,7.697,19.541
				s-2.516,14.36-7.697,19.392c-5.033,4.885-11.547,7.402-19.391,7.402H943.832V633.619z"/>
		</g>
	</g>
</g>
<text transform="matrix(1 0 0 1 87.3208 1186.5)"><tspan x="0" y="0" fill="#226698" font-family="'CoolveticaRg-Regular'" font-size="130" letter-spacing="1">visit </tspan><tspan x="272.083" y="0" fill="#B7A70F" font-family="'CoolveticaRg-Regular'" font-size="144" letter-spacing="1">hakron.io</tspan><tspan x="819.271" y="0" fill="#226698" font-family="'CoolveticaRg-Regular'" font-size="130" letter-spacing="1"> for more info </tspan></text>
<text transform="matrix(1 0 0 1 86.4839 867.5)" fill="#DFAF25" font-family="'Neon80s'" font-size="208" letter-spacing="2">THIS WEEKEND!</text>
<text transform="matrix(1 0 0 1 103.6958 1012.5)" fill="#DF5432" font-family="'Neon80s'" font-size="77">@ The Bit Factory - Suite 511, 526 S. Main St.</text>
<linearGradient id="XMLID_12_" gradientUnits="userSpaceOnUse" x1="193.0576" y1="696.3545" x2="182.7443" y2="345.6974" gradientTransform="matrix(1.9438 0 0 -1.9438 467.5281 3105.1123)">
	<stop  offset="0" style="stop-color:#246596"/>
	<stop  offset="0.8587" style="stop-color:#246596"/>
	<stop  offset="1" style="stop-color:#246596"/>
</linearGradient>
<path id="XMLID_3_" fill="url(#XMLID_12_)" stroke="#B7A70F" stroke-width="6" stroke-linejoin="round" stroke-miterlimit="1" d="
	M16.64,1282.052L15.14-7.386h45.491v1243.548h1675.342v45.89H16.64z"/>
<linearGradient id="XMLID_13_" gradientUnits="userSpaceOnUse" x1="179.2295" y1="701.8818" x2="168.9321" y2="351.7674" gradientTransform="matrix(-1.9438 0 0 1.9438 1235.5852 -1819.4463)">
	<stop  offset="0" style="stop-color:#246596"/>
	<stop  offset="0.8587" style="stop-color:#246596"/>
	<stop  offset="1" style="stop-color:#246596"/>
</linearGradient>
<path id="XMLID_1_" fill="url(#XMLID_13_)" stroke="#B7A70F" stroke-width="6" stroke-linejoin="round" stroke-miterlimit="1" d="
	M1711.473,13.614l1.5,1287.438h-45.491l0.001-1241.548H-4v-45.89H1711.473z"/>
<linearGradient id="XMLID_14_" gradientUnits="userSpaceOnUse" x1="208.9043" y1="907.834" x2="208.1341" y2="881.6457" gradientTransform="matrix(1.9438 0 0 -1.9438 467.5281 3105.1123)">
	<stop  offset="0" style="stop-color:#246596"/>
	<stop  offset="0.8587" style="stop-color:#246596"/>
	<stop  offset="1" style="stop-color:#246596"/>
</linearGradient>
<path id="XMLID_5_" fill="url(#XMLID_14_)" stroke="#B7A70F" stroke-width="6" stroke-linejoin="round" stroke-miterlimit="1" d="
	M60.631,1236.162h1673.342v45.889H16.64"/>
<g>
	
		<image overflow="visible" width="113" height="92" xlink:href="../../flyers/New Roo Weekend Flier/twitterBrown.png"  transform="matrix(0.5744 0 0 0.5744 301.6855 576.6738)">
	</image>
	
		<image overflow="visible" width="113" height="106" xlink:href="../../flyers/New Roo Weekend Flier/snapchatBrown.png"  transform="matrix(0.5992 0 0 0.5992 298.8945 493.2344)">
	</image>
	<text transform="matrix(1 0 0 1 388.6689 544.0649)" fill="#48301C" font-family="'Neon80s'" font-size="55.1862">uahakron</text>
	<text transform="matrix(1 0 0 1 388.6689 619.4863)" fill="#48301C" font-family="'Neon80s'" font-size="55.1862">uahakron</text>
</g>
</svg>
