<?xml version="1.0" encoding="utf-8"?>
<!-- Generator: Adobe Illustrator 19.0.0, SVG Export Plug-In . SVG Version: 6.00 Build 0)  -->
<svg version="1.1" id="Layer_1" xmlns="http://www.w3.org/2000/svg" xmlns:xlink="http://www.w3.org/1999/xlink" x="0px" y="0px"
	 viewBox="0 0 973.7 1348.3" style="enable-background:new 0 0 973.7 1348.3;" xml:space="preserve">
<style type="text/css">
	.st0{fill:#D73027;}
	.st1{fill:#F26B37;}
	.st2{fill:#F3DE2C;}
	.st3{fill:#808080;}
	.st4{fill:#6B6B6B;}
	.st5{fill:#28A7D7;}
	.st6{fill:#218BB3;}
	.st7{fill:#F7F5E2;}
	.st8{fill:#9FC8D7;}
	.st9{fill:#80A1AD;}
	.st10{fill:none;stroke:#6B6B6B;stroke-width:5;}
	.st11{fill:#E6E1CE;}
	.st12{fill:none;stroke:#6B6B6B;stroke-width:4;}
</style>
<g>
	<path class="st0" d="M260.7,1205.2C0,1348.4,0,1348.3,0,1348.3s0,0,52.5-292.8s161.7-214.3,260.7-143.1
		C414.8,985.5,521.6,1062,260.7,1205.2z"/>
</g>
<path class="st1" d="M251.4,1163.4C55.9,1270.8,55.9,1270.7,55.9,1270.7s0,0,39.4-219.6s121.3-160.7,195.6-107.3
	C367,998.6,447.1,1056,251.4,1163.4z"/>
<path class="st2" d="M238.4,1126.6c-130.4,71.6-130.4,71.6-130.4,71.6s0,0,26.2-146.4s80.9-107.1,130.4-71.6
	C315.5,1016.8,368.9,1055,238.4,1126.6z"/>
<g>
	<polygon class="st3" points="397,951.1 250.4,845.7 287.5,765.4 457.8,887.8 	"/>
</g>
<polygon class="st4" points="397,951.1 370.7,932.2 421.7,861.6 457.8,887.8 "/>
<g>
	<polygon class="st5" points="543.2,410.3 418,380.2 110.8,638.4 448.8,569.6 	"/>
</g>
<g>
	<polygon class="st5" points="784.7,643.8 716.3,534.7 595.4,675 638,1017.3 	"/>
</g>
<path class="st6" d="M716.3,534.7l50.4,80.4C748.3,640.5,612,808.6,612,808.6l-16.6-137.7"/>
<g>
	<path class="st7" d="M811.8,510c-20.4,28.4-40.6,55.3-60.4,80.9C599.9,786,471.5,897.1,471.5,897.1s-33.9-24.3-83.4-59.9
		c-4.5-3.2-9-6.5-13.7-9.9c-56.2-40.4-100.5-72.2-100.5-72.2s81.3-195,261.8-443.5C675.2,119.6,888.1,26.6,953.3,1.5
		c9.5-3.7,19.7,3.6,19.3,13.8c-1.4,35-6.9,110.3-29.4,201C920.7,307.2,881.1,413.5,811.8,510z"/>
</g>
<path class="st8" d="M830.9,330.8c-26,36.1-76.3,44.4-112.5,18.4c-3.6-2.6-7-5.4-10-8.5c-27.4-27.4-31.8-71.4-8.4-104
	c26-36.1,76.3-44.4,112.5-18.4c12.3,8.8,21.4,20.5,26.9,33.4C850.2,276.9,848,306.9,830.9,330.8z"/>
<path class="st9" d="M707.6,338.8c3.1,3,6.4,5.9,10,8.5c36.1,26,86.5,17.7,112.5-18.4c17.1-23.8,19.4-53.9,8.5-79h-0.1
	C838.5,323.6,781.3,360.6,707.6,338.8"/>
<path class="st10" d="M830.9,330.8c-26,36.1-76.3,44.4-112.5,18.4c-3.6-2.6-7-5.4-10-8.5c-27.4-27.4-31.8-71.4-8.4-104
	c26-36.1,76.3-44.4,112.5-18.4c12.3,8.8,21.4,20.5,26.9,33.4C850.2,276.9,848,306.9,830.9,330.8z"/>
<path class="st11" d="M374.4,827.8c254.8-151.3,436.7-341,568.8-611.5c-22.5,90.9-62.1,197.2-131.5,293.8
	c-20.4,28.4-40.6,55.3-60.4,80.9C599.9,786.1,471.5,897.2,471.5,897.2"/>
<g>
	
		<rect x="484.8" y="453.3" transform="matrix(0.8121 0.5836 -0.5836 0.8121 477.4059 -163.7163)" class="st5" width="16.2" height="412"/>
</g>
<path class="st11" d="M352.6,939.9c-4.5-3.2-9-6.5-13.7-9.9"/>
<path class="st11" d="M589.1,724.3c51.5-47.7,98.8-99,142.3-154.6"/>
<path class="st12" d="M830.9,329.8c-26,36.1-76.3,44.4-112.5,18.4c-3.6-2.6-7-5.4-10-8.5c-27.4-27.4-31.8-71.4-8.4-104
	c26-36.1,76.3-44.4,112.5-18.4c12.3,8.8,21.4,20.5,26.9,33.4C850.2,276,848,306,830.9,329.8z"/>
</svg>
