<?xml version="1.0" encoding="utf-8"?>
<!-- Generator: Adobe Illustrator 19.0.0, SVG Export Plug-In . SVG Version: 6.00 Build 0)  -->
<svg version="1.1" id="Layer_1" xmlns="http://www.w3.org/2000/svg" xmlns:xlink="http://www.w3.org/1999/xlink" x="0px" y="0px"
	 viewBox="0 0 159.3 192.7" style="enable-background:new 0 0 159.3 192.7;" xml:space="preserve">
<style type="text/css">
	.st0{fill:#D73027;}
	.st1{fill:#F26B37;}
	.st2{fill:#F3DE2C;}
	.st3{fill:#808080;}
	.st4{fill:#6B6B6B;}
	.st5{fill:#28A7D7;}
	.st6{fill:#218BB3;}
	.st7{fill:#F7F5E2;}
	.st8{fill:#9FC8D7;stroke:#000000;}
	.st9{fill:#80A1AD;}
	.st10{fill:none;stroke:#000000;}
	.st11{fill:#E6E1CE;}
</style>
<g>
	<path class="st0" d="M27.4,143.7c3-16.5,7.7-24.5,14.5-24.5c4.9,0,10.4,3.9,15.7,7.8c6.5,4.7,13.3,9.5,12.9,15.5
		c-0.3,5.5-6.6,11.6-19.1,18.4c-21.4,11.8-28.1,15.4-30.1,16.5L27.4,143.7z"/>
	<path d="M41.9,118.8v1h0c4.8,0,10.2,3.9,15.5,7.7c6.4,4.6,13,9.4,12.7,15.1c-0.3,5.3-6.5,11.2-18.8,18C32.2,171,24.8,175,22,176.6
		l5.9-32.8c2.9-16.2,7.5-24,14-24L41.9,118.8 M41.8,118.8c-6.1,0-11.6,5.8-15,24.9c-6.2,34.8-6.2,34.8-6.2,34.8s0,0,31-17
		c31-17,18.3-26.1,6.2-34.8C52.5,122.8,46.9,118.8,41.8,118.8L41.8,118.8z"/>
</g>
<path class="st1" d="M50.5,156.5c-23.3,12.8-23.3,12.8-23.3,12.8s0,0,4.7-26.1s14.4-19.1,23.3-12.8
	C64.3,136.9,73.8,143.7,50.5,156.5z"/>
<path class="st2" d="M49,152.1c-15.5,8.5-15.5,8.5-15.5,8.5s0,0,3.1-17.4s9.6-12.7,15.5-8.5C58.1,139,64.5,143.6,49,152.1z"/>
<g>
	<polygon class="st3" points="49.8,118.9 54.6,108.4 75.8,123.6 67.9,131.9 	"/>
	<path d="M54.8,109.1l20.3,14.6l-7.2,7.5l-17.4-12.5L54.8,109.1 M54.4,107.6l-0.5,1.1l-4.4,9.6l-0.3,0.7l0.7,0.5L67.2,132l0.7,0.5
		l0.6-0.6l7.2-7.5l0.8-0.8l-0.9-0.7l-20.3-14.6L54.4,107.6L54.4,107.6z"/>
</g>
<polygon class="st4" points="67.8,131.2 64.7,129 70.8,120.6 75.1,123.7 "/>
<g>
	<path class="st5" d="M33.8,94.5c-0.2,0-0.4-0.1-0.5-0.3c-0.1-0.2,0-0.5,0.1-0.6L70,63c0.1-0.1,0.2-0.1,0.3-0.1c0,0,0.1,0,0.1,0
		l14.9,3.6c0.2,0,0.3,0.1,0.3,0.3c0.1,0.1,0.1,0.3,0,0.4L74.4,86.1c-0.1,0.1-0.2,0.2-0.3,0.2L33.8,94.5
		C33.9,94.5,33.8,94.5,33.8,94.5z"/>
	<path d="M70.3,63.3l14.9,3.6L74,85.9L33.8,94L70.3,63.3 M70.3,62.3c-0.2,0-0.5,0.1-0.6,0.2L33.1,93.3c-0.4,0.3-0.5,0.8-0.3,1.2
		c0.2,0.4,0.5,0.6,0.9,0.6c0.1,0,0.1,0,0.2,0l40.2-8.2c0.3-0.1,0.5-0.2,0.7-0.5l11.2-18.9c0.2-0.3,0.2-0.6,0.1-0.9s-0.4-0.5-0.7-0.6
		l-14.9-3.6C70.5,62.4,70.4,62.3,70.3,62.3L70.3,62.3z"/>
</g>
<g>
	<path class="st5" d="M96.4,139.6c-0.2,0-0.4-0.2-0.4-0.4l-5.1-40.7c0-0.1,0-0.3,0.1-0.4l14.4-16.7c0.1-0.1,0.2-0.2,0.4-0.2
		c0,0,0,0,0,0c0.2,0,0.3,0.1,0.4,0.2l8.1,13c0.1,0.1,0.1,0.3,0,0.4L97,139.3C96.9,139.5,96.7,139.6,96.4,139.6
		C96.5,139.6,96.5,139.6,96.4,139.6z"/>
	<path d="M105.8,81.7l8.1,13l-17.4,44.4l-5.1-40.7L105.8,81.7 M105.8,80.7c-0.3,0-0.6,0.1-0.8,0.3L90.7,97.7
		c-0.2,0.2-0.3,0.5-0.2,0.8l5.1,40.7c0.1,0.5,0.4,0.8,0.9,0.9c0,0,0.1,0,0.1,0c0.4,0,0.8-0.2,0.9-0.6l17.4-44.4
		c0.1-0.3,0.1-0.6-0.1-0.9l-8.1-13C106.5,80.9,106.2,80.7,105.8,80.7C105.9,80.7,105.8,80.7,105.8,80.7L105.8,80.7z"/>
</g>
<path class="st6" d="M105.8,81.7l6,9.6c-2.2,3-18.4,23-18.4,23l-2-16.4"/>
<g>
	<path class="st7" d="M52.6,108.2l0.2-0.4c0.1-0.2,9.9-23.6,31.2-52.8c16.7-23,42.4-34.2,49.9-37.1c0.3-0.1,0.5-0.1,0.8-0.1
		c0.6,0,1.2,0.2,1.6,0.7c0.4,0.4,0.6,1,0.6,1.6c-0.2,4.4-0.8,13.3-3.5,24c-3.3,13.4-8.6,25.2-15.7,35.1c-2.3,3.2-4.7,6.5-7.2,9.6
		c-17.8,23-33.2,36.4-33.4,36.5l-0.3,0.3L52.6,108.2z"/>
	<path d="M134.6,18.2c0.9,0,1.7,0.8,1.7,1.8c-0.2,4.2-0.8,13.1-3.5,23.9c-2.7,10.8-7.4,23.5-15.6,34.9c-2.4,3.4-4.8,6.6-7.2,9.6
		c-18,23.2-33.3,36.4-33.3,36.4s-4-2.9-9.9-7.1c-0.5-0.4-1.1-0.8-1.6-1.2c-6.7-4.8-12-8.6-12-8.6s9.7-23.2,31.1-52.7
		c16.6-22.8,41.9-33.9,49.7-36.9C134.2,18.3,134.4,18.2,134.6,18.2 M134.6,17.2L134.6,17.2c-0.3,0-0.7,0.1-1,0.2
		c-7.5,2.9-33.3,14.1-50.1,37.2C62.2,84,52.4,107.4,52.3,107.6l-0.3,0.7l0.6,0.5l12,8.6l1,0.8l0.6,0.4l9.9,7.1l0.6,0.5l0.6-0.5
		c0.2-0.1,15.6-13.5,33.4-36.6c2.5-3.2,4.9-6.4,7.2-9.6c7.1-9.9,12.5-21.8,15.8-35.3c2.7-10.8,3.4-19.7,3.5-24.1
		c0-0.7-0.2-1.4-0.7-2C136,17.5,135.3,17.2,134.6,17.2L134.6,17.2z"/>
</g>
<path class="st8" d="M119.4,57.5c-3.1,4.3-9.1,5.3-13.4,2.2c-0.4-0.3-0.8-0.6-1.2-1c-3.3-3.3-3.8-8.5-1-12.4
	c3.1-4.3,9.1-5.3,13.4-2.2c1.5,1.1,2.5,2.4,3.2,4C121.7,51,121.5,54.6,119.4,57.5z"/>
<path class="st9" d="M104.8,58.4c0.4,0.4,0.8,0.7,1.2,1c4.3,3.1,10.3,2.1,13.4-2.2c2-2.8,2.3-6.4,1-9.4h0
	C120.3,56.6,113.5,61,104.8,58.4"/>
<path class="st10" d="M119.4,57.5c-3.1,4.3-9.1,5.3-13.4,2.2c-0.4-0.3-0.8-0.6-1.2-1c-3.3-3.3-3.8-8.5-1-12.4
	c3.1-4.3,9.1-5.3,13.4-2.2c1.5,1.1,2.5,2.4,3.2,4C121.7,51,121.5,54.6,119.4,57.5z"/>
<path class="st11" d="M65.1,116.6c30.3-18,51.9-40.6,67.7-72.7c-2.7,10.8-7.4,23.5-15.6,34.9c-2.4,3.4-4.8,6.6-7.2,9.6
	c-18,23.2-33.3,36.4-33.3,36.4s-4-2.9-9.9-7.1C66.2,117.4,65.6,117,65.1,116.6"/>
<g>
	<path class="st5" d="M65.7,117.5c-0.1,0-0.2,0-0.3-0.1l-1.6-1.1c-0.2-0.2-0.3-0.5-0.1-0.7l28.6-39.8c0.1-0.1,0.2-0.2,0.3-0.2
		c0,0,0.1,0,0.1,0c0.1,0,0.2,0,0.3,0.1l1.6,1.1c0.2,0.2,0.3,0.5,0.1,0.7l-28.6,39.8C66.1,117.4,65.9,117.5,65.7,117.5
		C65.8,117.5,65.8,117.5,65.7,117.5z"/>
	<path d="M92.7,76.1l1.6,1.1L65.7,117l-1.6-1.1L92.7,76.1 M92.7,75.1c-0.1,0-0.1,0-0.2,0c-0.3,0-0.5,0.2-0.7,0.4l-28.6,39.8
		c-0.3,0.4-0.2,1.1,0.2,1.4l1.6,1.1c0.2,0.1,0.4,0.2,0.6,0.2c0.1,0,0.1,0,0.2,0c0.3,0,0.5-0.2,0.7-0.4l28.6-39.8
		c0.3-0.4,0.2-1.1-0.2-1.4l-1.6-1.1C93.2,75.1,93,75.1,92.7,75.1L92.7,75.1z"/>
</g>
<path class="st11" d="M62.5,129.9c-0.5-0.4-1.1-0.8-1.6-1.2"/>
<path class="st11" d="M90.7,104.3c6.1-5.7,11.7-11.8,16.9-18.4"/>
</svg>
