<?xml version="1.0" encoding="utf-8"?>
<!-- Generator: Adobe Illustrator 19.0.0, SVG Export Plug-In . SVG Version: 6.00 Build 0)  -->
<svg version="1.1" id="Layer_1" xmlns="http://www.w3.org/2000/svg" xmlns:xlink="http://www.w3.org/1999/xlink" x="0px" y="0px"
	 viewBox="0 0 1423.2 1410.7" style="enable-background:new 0 0 1423.2 1410.7;" xml:space="preserve">
<style type="text/css">
	.st0{fill:#118FED;}
	.st1{fill:#FFFFFF;}
	.st2{fill:none;stroke:#000000;stroke-width:25;stroke-linecap:square;stroke-miterlimit:10;}
	.st3{fill:none;stroke:#000000;stroke-width:30;stroke-miterlimit:10;}
	.st4{fill:none;stroke:#000000;stroke-width:15;stroke-miterlimit:10;}
	.st5{fill:none;stroke:#000000;stroke-width:25;stroke-miterlimit:10;}
	.st6{fill:#FFFFFF;stroke:#000000;stroke-width:25;stroke-miterlimit:10;}
	.st7{font-family:'NirmalaUI-Bold';}
	.st8{font-size:261.6685px;}
	.st9{font-size:98.6541px;}
	.st10{fill:none;stroke:#000000;stroke-width:25;stroke-linecap:round;stroke-miterlimit:10;}
	.st11{fill:#FFFFFF;stroke:#000000;stroke-width:25;stroke-linecap:round;stroke-linejoin:bevel;stroke-miterlimit:10;}
	.st12{fill:#FFFFFF;stroke:#000000;stroke-width:25;stroke-linecap:round;stroke-miterlimit:10;}
	.st13{fill:#FFFFFF;stroke:#000000;stroke-width:25;stroke-linecap:square;stroke-miterlimit:10;}
	.st14{fill:none;stroke:#000000;stroke-width:10;stroke-linecap:round;stroke-miterlimit:10;}
</style>
<path class="st0" d="M683.5,1339.4l-506.8-292.6c-17.4-10-28-28.5-28-48.6V413.1c0-20,10.7-38.5,28-48.6L683.5,71.9
	c17.4-10,38.7-10,56.1,0l506.8,292.6c17.4,10,28,28.5,28,48.6v585.2c0,20-10.7,38.5-28,48.6l-506.8,292.6
	C722.2,1349.4,700.8,1349.4,683.5,1339.4z"/>
<rect x="864.5" y="256" class="st1" width="37" height="197"/>
<rect x="658" y="449.7" class="st1" width="102.5" height="44.3"/>
<path class="st2" d="M898.7,251h12v210h-12c-27.5,0-50-22.5-50-50V301C848.7,273.5,871.2,251,898.7,251z"/>
<polygon class="st1" points="255,564 483,564 483,464 255,409 "/>
<rect x="966" y="464" class="st1" width="61" height="100"/>
<path class="st3" d="M681.4,1387.3l-545.1-314.7c-18.7-10.8-30.2-30.7-30.2-52.2V391c0-21.5,11.5-41.5,30.2-52.2L681.4,24.1
	c18.7-10.8,41.7-10.8,60.3,0l545.1,314.7c18.7,10.8,30.2,30.7,30.2,52.2v629.4c0,21.5-11.5,41.5-30.2,52.2l-545.1,314.7
	C723.1,1398.1,700.1,1398.1,681.4,1387.3z"/>
<path class="st4" d="M710,1393"/>
<g>
	<circle class="st5" cx="710" cy="1209.5" r="46"/>
	<line class="st5" x1="710" y1="1163.5" x2="710" y2="1127.5"/>
	<line class="st5" x1="677.5" y1="1177" x2="652" y2="1151.5"/>
	<line class="st5" x1="664" y1="1209.5" x2="628" y2="1209.5"/>
	<line class="st5" x1="677.5" y1="1242" x2="652" y2="1267.5"/>
	<line class="st5" x1="710" y1="1255.5" x2="710" y2="1291.5"/>
	<line class="st5" x1="742.5" y1="1242" x2="768" y2="1267.5"/>
	<line class="st5" x1="756" y1="1209.5" x2="792" y2="1209.5"/>
	<line class="st5" x1="742.5" y1="1177" x2="768" y2="1151.5"/>
</g>
<rect x="1080.7" y="419" class="st1" width="79.3" height="142"/>
<path class="st6" d="M1383,901H40c-15.4,0-28-12.6-28-28V592c0-15.4,12.6-28,28-28h1343c15.4,0,28,12.6,28,28v281
	C1411,888.4,1398.4,901,1383,901z"/>
<text transform="matrix(1 0 0 1 145.7166 828.5777)" class="st7 st8">HAKRON</text>
<text transform="matrix(1 0 0 1 349.6084 1056.584)" class="st1 st7 st9">&lt;/AKRON, OH&gt;</text>
<g>
	<line class="st10" x1="966" y1="564" x2="966" y2="464"/>
	<line class="st10" x1="966" y1="464" x2="1027" y2="464"/>
	<line class="st10" x1="1027" y1="464" x2="1027" y2="564"/>
</g>
<g>
	<line class="st10" x1="1070.5" y1="564" x2="1070.5" y2="481.5"/>
	<line class="st10" x1="1070.5" y1="481.5" x2="1171" y2="481.5"/>
	<line class="st10" x1="1171" y1="481.5" x2="1171" y2="564"/>
	<line class="st10" x1="1154" y1="481.5" x2="1154" y2="419"/>
	<line class="st10" x1="1154" y1="419" x2="1088" y2="419"/>
	<line class="st10" x1="1088" y1="419" x2="1088" y2="481.5"/>
</g>
<line class="st2" x1="1121" y1="419" x2="1121" y2="368.5"/>
<g>
	<g>
		<line class="st11" x1="255" y1="564" x2="255" y2="409"/>
		<line class="st11" x1="255" y1="409" x2="483" y2="464"/>
		<line class="st11" x1="483" y1="464" x2="483" y2="564"/>
		<line class="st11" x1="405" y1="445.2" x2="405" y2="564"/>
		<line class="st11" x1="361.1" y1="434.6" x2="361.1" y2="564"/>
		<line class="st11" x1="361.1" y1="469" x2="255" y2="469"/>
		<line class="st11" x1="405" y1="492" x2="483" y2="492"/>
	</g>
	<line class="st12" x1="255" y1="564" x2="483" y2="564"/>
</g>
<path class="st13" d="M931.7,356c0,51.7-101.5,93.7-226.8,93.7S478.1,407.7,478.1,356s101.5-93.7,226.8-93.7S931.7,304.3,931.7,356z
	"/>
<g>
	<line class="st10" x1="658" y1="494" x2="760.5" y2="494"/>
	<line class="st10" x1="760.5" y1="494" x2="771" y2="447.6"/>
	<line class="st10" x1="658" y1="494" x2="647.5" y2="447.6"/>
</g>
<g>
	<g>
		<path class="st14" d="M478.1,356c0-30.4,101.5-55,226.8-55"/>
		<path class="st14" d="M931.7,356c0-30.4-101.5-55-226.8-55"/>
	</g>
	<g>
		<path class="st14" d="M931.7,356c0,30.4-101.5,55-226.8,55"/>
		<path class="st14" d="M478.1,356c0,30.4,101.5,55,226.8,55"/>
	</g>
</g>
</svg>
