<?xml version="1.0" encoding="utf-8"?>
<!-- Generator: Adobe Illustrator 19.0.0, SVG Export Plug-In . SVG Version: 6.00 Build 0)  -->
<svg version="1.1" id="Layer_1" xmlns="http://www.w3.org/2000/svg" xmlns:xlink="http://www.w3.org/1999/xlink" x="0px" y="0px"
	 viewBox="0 0 943 302.9" style="enable-background:new 0 0 943 302.9;" xml:space="preserve">
<style type="text/css">
	.st0{fill:none;stroke:#27A7D8;stroke-width:13;stroke-linecap:round;stroke-linejoin:round;stroke-miterlimit:10;}
	.st1{fill:#081638;}
	.st2{fill:#27A7D8;}
	.st3{fill:#2BADAD;stroke:#1F2E5A;stroke-width:14;stroke-linecap:round;stroke-linejoin:round;stroke-miterlimit:10;}
	.st4{clip-path:url(#XMLID_95_);fill:#1F2E5A;}
	.st5{fill:none;}
</style>
<path id="XMLID_94_" class="st0" d="M781.7,82.8c3.6,4,6.9,7.8,9.7,11.6s5.2,7.3,7.2,10.7c1.9,3.4,3.4,6.6,4.4,9.6
	c1,3,1.4,5.7,1.3,8.1c-0.1,2.4-0.7,4.5-2,6.3c-1.2,1.7-3,3-5.3,3.9c-2.2,0.9-5,1.3-8.1,1.4c-3.1,0.1-6.6-0.3-10.5-1
	c-3.9-0.7-8-1.8-12.5-3.3c-4.5-1.5-9.2-3.3-14.1-5.4c-4.9-2.1-10.1-4.6-15.4-7.4c-5.3-2.8-10.7-5.9-16.2-9.3
	c-5.5-3.4-11.1-7.1-16.6-11.1c-5.6-4-10.9-8-15.9-12.1c-5-4.1-9.7-8.2-14.1-12.2c-4.4-4.1-8.4-8.1-12-12.1s-6.9-7.8-9.7-11.6
	c-2.8-3.7-5.2-7.3-7.2-10.7c-1.9-3.4-3.4-6.6-4.4-9.6c-1-3-1.4-5.7-1.3-8.1s0.7-4.5,2-6.3c1.2-1.7,3-3,5.3-3.9s5-1.3,8.1-1.4
	c3.1-0.1,6.6,0.3,10.5,1s8,1.8,12.5,3.3s9.2,3.3,14.1,5.4"/>
<path id="XMLID_93_" class="st1" d="M780,38c-6-10.3-14.2-18.5-24.8-24.6c-10.4-6.1-21.8-9.1-34.1-9.1c-12.2,0-23.5,3-33.9,9.1
	c-10.3,6-18.5,14.2-24.6,24.6c-6.1,10.4-9.1,21.7-9.1,33.9c0,12.2,3.1,23.5,9.3,33.9c6.3,10.5,14.5,18.7,24.6,24.6
	c10.4,6.1,21.7,9.1,33.7,9.1c12.2,0,23.5-3,33.9-9.1c10.3-6,18.6-14.2,24.8-24.6c6.2-10.4,9.3-21.7,9.3-33.9
	C789.2,59.7,786.1,48.4,780,38z"/>
<path id="XMLID_90_" class="st2" d="M35.4,64.6c2,0,3.7,0.7,5.1,2.1c1.4,1.4,2.2,3.1,2.2,5.2c0,2.1-0.7,3.8-2.2,5.2
	c-1.4,1.4-3.1,2.1-5.1,2.1h-6.3c-2.1,0-3.8,0.7-5.2,2.1c-1.4,1.4-2.1,3.1-2.1,5.2v43c0,2.1-0.7,3.8-2.1,5.2
	c-1.4,1.4-3.1,2.1-5.2,2.1h-0.2c-2,0-3.7-0.7-5.1-2.1c-1.4-1.4-2.2-3.1-2.2-5.2V14.3c0-2.1,0.7-3.8,2.2-5.2C10.7,7.7,12.4,7,14.4,7
	h0.2c2.1,0,3.8,0.7,5.2,2.1c1.4,1.4,2.1,3.1,2.1,5.2v43c0,2.1,0.7,3.8,2.1,5.2c1.4,1.4,3.1,2.1,5.2,2.1H35.4z M85.5,9.1
	C87,7.7,88.7,7,90.6,7c2,0,3.7,0.7,5.1,2.1c1.4,1.4,2.2,3.1,2.2,5.2v115.2c0,2.1-0.7,3.8-2.2,5.2c-1.4,1.4-3.1,2.1-5.1,2.1
	c-2,0-3.7-0.7-5.1-2.1c-1.4-1.4-2.2-3.1-2.2-5.2v-43c0-2.1-0.7-3.8-2.2-5.2c-1.4-1.4-3.1-2.1-5.1-2.1h-6.5c-2,0-3.6-0.7-5-2.1
	c-1.4-1.4-2.1-3.1-2.1-5.2c0-2.1,0.7-3.8,2.1-5.2c1.4-1.4,3.1-2.1,5-2.1h6.5c2,0,3.7-0.7,5.1-2.1c1.4-1.4,2.2-3.1,2.2-5.2v-43
	C83.3,12.2,84.1,10.5,85.5,9.1z"/>
<path id="XMLID_87_" class="st2" d="M209.9,10.3c1.4-3.6,4.1-5.4,8.1-5.4c3.9,0,6.6,1.8,8.1,5.4L272.3,127c0.4,1.2,0.6,2.3,0.6,3.3
	c0,2.4-0.9,4.4-2.6,6.2c-1.8,1.8-3.8,2.6-6.2,2.6c-1.7,0-3.3-0.5-4.8-1.6c-1.5-1.1-2.6-2.4-3.3-3.9l-10.4-26.6l-7.1-18h0.2
	l-16.1-41.6c-1.4-3.7-3-5.6-4.7-5.6c-1.7-0.1-3.3,1.8-4.7,5.5l-16.3,41.8l-6.7,17l-11,27.6c-0.6,1.5-1.7,2.8-3.3,3.9
	c-1.5,1-3.1,1.5-4.8,1.5c-2.4,0-4.4-0.9-6.1-2.6c-1.7-1.7-2.6-3.7-2.6-6.1c0-0.8,0.2-1.9,0.6-3.1L209.9,10.3z"/>
<path id="XMLID_68_" class="st2" d="M353.1,73.3v20.9H353v37.8c0,2.1-0.7,3.8-2.2,5.3c-1.5,1.5-3.3,2.2-5.3,2.2
	c-2.1,0-3.9-0.7-5.4-2.2c-1.5-1.5-2.3-3.3-2.3-5.3V11.8c0-2.1,0.8-3.8,2.3-5.3c1.5-1.5,3.4-2.2,5.4-2.2c2.1,0,3.8,0.7,5.3,2.2
	c1.5,1.5,2.2,3.3,2.2,5.3v61.6L353.1,73.3z M424.8,4.1c3.5,0,5.9,1.6,7.2,4.8c1.3,3.2,0.6,6-1.9,8.4L383.1,60
	c-2.3,2.1-3.4,4.6-3.4,7.7c0,2.6,1,5,2.9,7.1l49.2,52.2c2.3,2.4,2.8,5.1,1.5,8.1c-1.3,3-3.6,4.6-6.9,4.6c-2.1,0-3.9-0.8-5.4-2.3
	l-50.2-52.8c-1.9-2-3.5-4.6-4.8-8c-1.3-3.4-2-6.4-2-9.1c0-3,0.8-6.3,2.3-9.8c1.5-3.6,3.5-6.3,5.7-8.3l47.5-43.3
	C421.2,4.7,422.9,4.1,424.8,4.1z"/>
<path id="XMLID_65_" class="st2" d="M505.9,13.7c0-3.8,0.3-6,0.9-6.7c0.6-0.6,2.8-0.9,6.7-0.9c3.8,0,6,0.3,6.6,0.9
	c0.6,0.6,0.9,2.8,0.9,6.7v117.8c0,3.8-0.3,6-0.9,6.7c-0.6,0.6-2.8,0.9-6.6,0.9c-3.8,0-6-0.3-6.7-0.9c-0.6-0.6-0.9-2.8-0.9-6.7V13.7z
	 M543,81.9c-0.6-1-1.1-2.2-1.3-3.4c-0.3-1.2-0.4-2.3-0.5-3.1c-0.1-0.8,0-1.9,0.1-3.2c0.1-1.3,0.2-2.1,0.2-2.6c0-1.5,0.6-2.9,1.7-3.9
	c1.1-1.1,2.5-1.6,4-1.6c6.3,0,11.6-2.2,15.9-6.5c4.3-4.3,6.5-9.6,6.5-15.8c0-6.2-2.2-11.5-6.5-15.8c-4.3-4.3-9.7-6.5-15.9-6.5
	c-1.8,0-3.2-0.6-4.4-1.8c-1.2-1.2-1.8-2.6-1.8-4.3v-2.6c0-1.6,0.6-3.1,1.8-4.3c1.2-1.2,2.7-1.9,4.4-1.9c6.9,0,13.2,1.7,18.9,5.1
	c2.4,1.3,4.9,3.3,7.4,6c2.6,2.6,4.6,5.1,6,7.5c3.4,5.6,5.1,11.8,5.1,18.6c0,8.1-2.5,15.5-7.6,22.3c-4.2,5.5-9.3,9.5-15.2,12.1
	c-1.4,0.5-2.2,1.7-2.2,3.4c0,0.8,0.2,1.4,0.5,1.9l26,44.9c1.4,2.5,1.4,5,0,7.5c-1.4,2.5-3.6,3.8-6.5,3.8c-1.1,0-2.3-0.4-3.6-1.2
	c-1.3-0.8-2.2-1.7-2.9-2.7L543,81.9z"/>
<g id="XMLID_62_">
	<path id="XMLID_64_" class="st2" d="M859,7.6c-0.9-1.3-2-2.2-3.2-2.8c-1-0.5-2.1-0.8-3.3-0.8c-2.1,0-3.8,0.8-5.3,2.3
		c-1.5,1.5-2.2,3.4-2.2,5.4l-0.5,120.1c0,2.1,0.8,3.5,2.3,5.1c1.5,1.5,3.4,2,5.4,2h0.3c2.1,0,4.8-0.4,6.3-2c1.5-1.5,3.2-3,3.2-5.1
		V40.1l35.9,63.1c1.4,2.2,3.1,3.3,5.9,3.3c1.6,0,2.9-0.5,4.3-1.4c2.1-1.3,3-3.5,3-6.3c0-1.6-0.5-3.1-1.4-4.5L859,7.6z"/>
	<path id="XMLID_63_" class="st2" d="M933.9,6.4c-1.5-1.5-3.3-2.3-5.3-2.3c-2.1,0-3.8,0.8-5.4,2.3c-1.5,1.5-2.3,3.4-2.3,5.4
		l-0.3,120.1c0,2.1,0.8,3.5,2.3,5.1c1.5,1.5,3.3,2,5.3,2h0.5c2.1,0,3.7-0.4,5.2-2c1.5-1.5,2.1-3,2.1-5.1V11.8
		C936,9.7,935.4,7.9,933.9,6.4z"/>
</g>
<path id="XMLID_60_" class="st2" d="M296.6,265.3c0,5.2-1.1,10.1-3.2,14.6c-2.1,4.6-5.3,8.6-9.5,12c-4.2,3.4-9.6,6.1-16,8.1
	c-6.4,2-13.9,2.9-22.4,2.9c-4.7,0-9-0.2-12.7-0.5c-1.5-0.1-2.9-0.3-4.3-0.4c-3.5-0.4-6.2-3.4-6.2-6.9l0,0c0-4.2,3.6-7.4,7.8-6.9
	c1.4,0.2,2.7,0.3,4.1,0.4c4.2,0.4,8.4,0.5,12.8,0.5c5.9,0,11-0.5,15.2-1.6c4.2-1.1,7.6-2.6,10.3-4.6c2.7-2,4.6-4.4,5.8-7.3
	c1.2-2.8,1.8-6,1.8-9.6c0-3.3-0.7-6.1-2.2-8.5c-1.5-2.4-3.5-4.4-6.1-6.1c-2.6-1.6-5.8-2.9-9.4-3.7c-3.7-0.8-7.7-1.2-12-1.2h-7.1
	c-3.6,0-6.4-2.9-6.4-6.4v-0.1c0-3.6,2.9-6.4,6.4-6.4h7.3c3.6,0,6.8-0.5,9.8-1.4c2.9-0.9,5.4-2.3,7.5-4c2.1-1.8,3.7-3.9,4.8-6.5
	c1.1-2.6,1.7-5.5,1.7-8.8c0-6.3-1.9-11-5.8-13.9c-3.9-2.9-9.6-4.4-17.1-4.4c-4,0-8.1,0.4-12.3,1.2c-1.7,0.3-3.5,0.7-5.2,1.1
	c-4.2,1-8.4-2.1-8.4-6.5v0c0-3,2-5.7,5-6.5c0.5-0.1,1.1-0.3,1.6-0.4c2.3-0.6,4.7-1.1,7-1.5c2.3-0.4,4.6-0.7,6.9-0.9
	c2.3-0.2,4.5-0.3,6.6-0.3c6.3,0,11.8,0.7,16.6,2c4.8,1.4,8.8,3.3,12,5.9c3.2,2.5,5.6,5.6,7.3,9.3s2.4,7.7,2.4,12.2
	c0,6.8-1.7,12.5-5.2,17.1c-3.5,4.6-8.2,8.3-14.3,11c3.1,0.5,6.1,1.5,9.1,2.9c3,1.5,5.7,3.3,8.1,5.6c2.4,2.3,4.3,4.9,5.8,8
	C295.9,258.1,296.6,261.6,296.6,265.3z"/>
<g id="XMLID_53_">
	<path id="XMLID_75_" class="st2" d="M442.5,242.1c0,9.1-0.9,17.3-2.7,24.8c-1.8,7.5-4.6,13.9-8.3,19.2c-3.7,5.4-8.3,9.5-13.7,12.4
		c-5.5,2.9-11.9,4.4-19.3,4.4c-6.3,0-12.1-1.2-17.3-3.6c-5.2-2.4-9.6-6.1-13.3-11c-3.7-5-6.5-11.3-8.5-19c-2-7.7-3-16.8-3-27.3
		c0-9.1,0.9-17.4,2.8-24.9c1.8-7.5,4.6-13.9,8.3-19.3c3.7-5.4,8.2-9.5,13.7-12.4c5.5-2.9,11.9-4.4,19.2-4.4c6.3,0,12.1,1.2,17.3,3.6
		c5.2,2.4,9.6,6.1,13.3,11.1c3.7,5,6.5,11.3,8.5,19C441.5,222.5,442.5,231.6,442.5,242.1z M372.3,241.5c0,1.9,0,3.8,0,5.6
		c0,0,0,0,0,0.1c0,2.3,2.7,3.6,4.6,2.2l44.2-32.7c1-0.7,1.4-2,1-3.2c-0.8-2.3-1.7-4.5-2.8-6.5c-1.4-2.5-3.1-4.7-5-6.6
		c-1.9-1.8-4.1-3.3-6.6-4.3c-2.5-1-5.3-1.5-8.3-1.5c-4.1,0-7.8,1-11.2,3c-3.4,2-6.2,5-8.6,8.9c-2.4,4-4.2,8.9-5.4,14.7
		C373,227.1,372.3,233.9,372.3,241.5z M426.6,242.6c0-2.1-0.1-4.1-0.2-6.1c0-0.3,0-0.5-0.1-0.8c-0.2-2.3-2.8-3.4-4.6-2.1l-44.4,33
		c-1,0.7-1.4,2-1,3.2c0.8,2.4,1.7,4.7,2.8,6.8c1.4,2.7,3.1,4.9,5,6.8c2,1.9,4.2,3.4,6.7,4.4c2.5,1.1,5.4,1.6,8.6,1.6
		c4.1,0,7.8-1,11.2-3c3.4-2,6.2-5,8.6-8.9c2.4-3.9,4.2-8.8,5.4-14.6C425.9,257.1,426.6,250.3,426.6,242.6z"/>
</g>
<g id="XMLID_49_">
	<path id="XMLID_69_" class="st2" d="M583.4,242.1c0,9.1-0.9,17.3-2.7,24.8c-1.8,7.5-4.6,13.9-8.3,19.2c-3.7,5.4-8.3,9.5-13.7,12.4
		c-5.5,2.9-11.9,4.4-19.3,4.4c-6.3,0-12.1-1.2-17.3-3.6c-5.2-2.4-9.6-6.1-13.3-11c-3.7-5-6.5-11.3-8.5-19c-2-7.7-3-16.8-3-27.3
		c0-9.1,0.9-17.4,2.8-24.9c1.8-7.5,4.6-13.9,8.3-19.3c3.7-5.4,8.2-9.5,13.7-12.4c5.5-2.9,11.9-4.4,19.2-4.4c6.3,0,12.1,1.2,17.3,3.6
		c5.2,2.4,9.6,6.1,13.3,11.1c3.7,5,6.5,11.3,8.5,19C582.4,222.5,583.4,231.6,583.4,242.1z M513.2,241.5c0,1.9,0,3.8,0,5.6
		c0,0,0,0,0,0.1c0,2.3,2.7,3.6,4.6,2.2l44.2-32.7c1-0.7,1.4-2,1-3.2c-0.8-2.3-1.7-4.5-2.8-6.5c-1.4-2.5-3.1-4.7-5-6.6
		c-1.9-1.8-4.1-3.3-6.6-4.3c-2.5-1-5.3-1.5-8.3-1.5c-4.1,0-7.8,1-11.2,3c-3.4,2-6.2,5-8.6,8.9c-2.4,4-4.2,8.9-5.4,14.7
		C513.9,227.1,513.2,233.9,513.2,241.5z M567.5,242.6c0-2.1-0.1-4.1-0.2-6.1c0-0.3,0-0.5-0.1-0.8c-0.2-2.3-2.8-3.4-4.6-2.1l-44.4,33
		c-1,0.7-1.4,2-1,3.2c0.8,2.4,1.7,4.7,2.8,6.8c1.4,2.7,3.1,4.9,5,6.8c2,1.9,4.2,3.4,6.7,4.4c2.5,1.1,5.4,1.6,8.6,1.6
		c4.1,0,7.8-1,11.2-3c3.4-2,6.2-5,8.6-8.9c2.4-3.9,4.2-8.8,5.4-14.6C566.8,257.1,567.5,250.3,567.5,242.6z"/>
</g>
<g id="XMLID_45_">
	<path id="XMLID_35_" class="st2" d="M723.3,242.1c0,9.1-0.9,17.3-2.7,24.8c-1.8,7.5-4.6,13.9-8.3,19.2c-3.7,5.4-8.3,9.5-13.7,12.4
		c-5.5,2.9-11.9,4.4-19.3,4.4c-6.3,0-12.1-1.2-17.3-3.6c-5.2-2.4-9.6-6.1-13.3-11c-3.7-5-6.5-11.3-8.5-19c-2-7.7-3-16.8-3-27.3
		c0-9.1,0.9-17.4,2.8-24.9c1.8-7.5,4.6-13.9,8.3-19.3c3.7-5.4,8.2-9.5,13.7-12.4c5.5-2.9,11.9-4.4,19.2-4.4c6.3,0,12.1,1.2,17.3,3.6
		c5.2,2.4,9.6,6.1,13.3,11.1c3.7,5,6.5,11.3,8.5,19C722.3,222.5,723.3,231.6,723.3,242.1z M653.1,241.5c0,1.9,0,3.8,0,5.6
		c0,0,0,0,0,0.1c0,2.3,2.7,3.6,4.6,2.2l44.2-32.7c1-0.7,1.4-2,1-3.2c-0.8-2.3-1.7-4.5-2.8-6.5c-1.4-2.5-3.1-4.7-5-6.6
		c-1.9-1.8-4.1-3.3-6.6-4.3c-2.5-1-5.3-1.5-8.3-1.5c-4.1,0-7.8,1-11.2,3c-3.4,2-6.2,5-8.6,8.9c-2.4,4-4.2,8.9-5.4,14.7
		C653.8,227.1,653.1,233.9,653.1,241.5z M707.4,242.6c0-2.1-0.1-4.1-0.2-6.1c0-0.3,0-0.5-0.1-0.8c-0.2-2.3-2.8-3.4-4.6-2.1l-44.4,33
		c-1,0.7-1.4,2-1,3.2c0.8,2.4,1.7,4.7,2.8,6.8c1.4,2.7,3.1,4.9,5,6.8c2,1.9,4.2,3.4,6.7,4.4c2.5,1.1,5.4,1.6,8.6,1.6
		c4.1,0,7.8-1,11.2-3c3.4-2,6.2-5,8.6-8.9c2.4-3.9,4.2-8.8,5.4-14.6C706.7,257.1,707.4,250.3,707.4,242.6z"/>
</g>
<line id="XMLID_44_" class="st3" x1="183" y1="187" x2="7" y2="187"/>
<line id="XMLID_43_" class="st3" x1="936" y1="187" x2="760" y2="187"/>
<g id="XMLID_40_">
	<defs>
		
			<ellipse id="XMLID_41_" transform="matrix(0.2398 -0.9708 0.9708 0.2398 500.0322 717.6471)" cx="708.3" cy="39.5" rx="85" ry="82.1"/>
	</defs>
	<clipPath id="XMLID_95_">
		<use xlink:href="#XMLID_41_"  style="overflow:visible;"/>
	</clipPath>
	<path id="XMLID_42_" class="st4" d="M702.5,6.4c-11.5,3.3-21.4,9.4-29.8,18.1c-8.4,8.7-14.1,19-17,30.9
		c-2.9,11.8-2.7,23.5,0.7,35.1c3.3,11.5,9.3,21.4,18,29.8c8.7,8.4,18.9,14.1,30.7,17c11.8,2.9,23.5,2.6,35.1-0.9
		c11.7-3.6,21.7-9.6,29.8-18c8.4-8.7,14.1-18.9,17-30.6c2.9-11.8,2.7-23.5-0.7-35.1c-3.3-11.5-9.3-21.4-18-30
		c-8.6-8.5-18.9-14.2-30.7-17.1C725.7,2.7,714,3,702.5,6.4z"/>
</g>
<path id="XMLID_39_" class="st0" d="M778.5,133.4c-3.9-0.7-8-1.8-12.5-3.3c-4.5-1.5-9.2-3.3-14.1-5.4c-4.9-2.1-10.1-4.6-15.4-7.4
	c-5.3-2.8-10.7-5.9-16.2-9.3c-5.5-3.4-11.1-7.1-16.6-11.1c-5.6-4-10.9-8-15.9-12.1c-5-4.1-9.7-8.2-14.1-12.2
	c-4.4-4.1-8.4-8.1-12-12.1s-6.9-7.8-9.7-11.6c-2.8-3.7-5.2-7.3-7.2-10.7c-1.9-3.4-3.4-6.6-4.4-9.6"/>
<line id="XMLID_38_" class="st5" x1="862" y1="113" x2="862" y2="139"/>
<path id="XMLID_37_" class="st5" d="M844,138.7"/>
<path id="XMLID_19_" class="st5" d="M862,138.7"/>
</svg>
