<?xml version="1.0" encoding="utf-8"?>
<!-- Generator: Adobe Illustrator 19.0.0, SVG Export Plug-In . SVG Version: 6.00 Build 0)  -->
<svg version="1.1" xmlns="http://www.w3.org/2000/svg" xmlns:xlink="http://www.w3.org/1999/xlink" x="0px" y="0px"
	 viewBox="0 0 960 560" style="enable-background:new 0 0 960 560;" xml:space="preserve">
<style type="text/css">
	.st0{display:none;}
	.st1{display:inline;}
	.st2{display:inline;fill:none;stroke:#F7EDCD;stroke-miterlimit:1;}
	.st3{fill:none;stroke:#F7EDCD;stroke-width:35;stroke-miterlimit:1;}
	.st4{display:inline;fill:none;stroke:#F7EDCD;stroke-miterlimit:10;}
	.st5{fill:#FFFFFF;}
	.st6{fill:#F7EDCD;}
	.st7{fill:url(#XMLID_14_);}
	.st8{fill:#DD5431;}
	.st9{fill:url(#XMLID_15_);}
	.st10{fill:#4A3223;}
	.st11{fill:url(#XMLID_23_);}
	.st12{fill:url(#XMLID_53_);}
	.st13{fill:url(#XMLID_76_);}
	.st14{fill:url(#XMLID_77_);}
	.st15{fill:#F7EDCD;stroke:#4A3223;stroke-width:6;stroke-linejoin:round;stroke-miterlimit:1;}
	.st16{fill:url(#XMLID_78_);}
	.st17{fill:url(#XMLID_79_);}
	.st18{fill:url(#XMLID_83_);}
	.st19{fill:url(#XMLID_85_);}
	.st20{fill:url(#XMLID_91_);}
	.st21{fill:url(#XMLID_138_);}
</style>
<g id="Layer_4" class="st0">
	<g id="Layer_3" class="st1">
		<g id="XMLID_13_" class="st0">
			<path id="XMLID_87_" class="st2" d="M433.4,354.7"/>
		</g>
		<g id="XMLID_11_" class="st0">
			<path id="XMLID_68_" class="st2" d="M470.3,391.5"/>
		</g>
		<g id="XMLID_9_" class="st0">
			<path id="XMLID_65_" class="st2" d="M471,354.5"/>
		</g>
		<g id="XMLID_8_" class="st0">
			<path id="XMLID_63_" class="st2" d="M433,354.5"/>
		</g>
		<g id="XMLID_7_" class="st0">
			<path id="XMLID_61_" class="st2" d="M470.5,355"/>
		</g>
		<g id="under_.0">
			<line id="XMLID_52_" class="st3" x1="670.8" y1="473.8" x2="822.1" y2="474.3"/>
		</g>
		<g id="over_ha">
			<line id="XMLID_50_" class="st3" x1="137" y1="97.5" x2="409" y2="97.5"/>
		</g>
		<g id="under_h">
			<line id="XMLID_45_" class="st3" x1="137.1" y1="294" x2="214" y2="294.9"/>
		</g>
		<g id="above_ro">
			<line id="XMLID_43_" class="st3" x1="467" y1="143.5" x2="752" y2="143.5"/>
		</g>
		<g id="XMLID_3_" class="st0">
			<path id="XMLID_36_" class="st1" d="M960,309"/>
			<path id="XMLID_35_" class="st4" d="M960,309"/>
		</g>
		<g id="left_of_2">
			<line id="XMLID_31_" class="st3" x1="546.5" y1="443" x2="546.5" y2="356"/>
		</g>
		<g id="curlce_center">
			<circle id="XMLID_29_" class="st3" cx="817.1" cy="375.4" r="18.5"/>
		</g>
	</g>
	<g id="Layer_1" class="st1">
		<g id="XMLID_1_">
			<g id="XMLID_424_">
				<g id="XMLID_452_">
					<path id="XMLID_456_" class="st5" d="M516.6,293.5c-9,0-17.2-3.2-23.3-9.3c-6-6-9.3-13.8-9.3-23.3v-51.1
						c0-18.6,6.6-34.4,19.3-46.9c12.7-12.6,28.5-19,46.8-19c9,0,17.1,3.2,23.2,9.4c6.2,6.2,9.4,14.2,9.4,23.2
						c0,18.5-12.1,31.1-31.5,32.7c-0.9,0.1-1.4,0.3-1.7,0.4c0,0,0,51.3,0,51.3c0,9.2-3.3,17.3-9.6,23.5
						C533.7,290.4,525.7,293.5,516.6,293.5z"/>
					<path id="XMLID_453_" class="st6" d="M550.1,161.4c4.4,0,8,1.4,10.8,4.3c2.8,2.9,4.3,6.5,4.3,10.8c0,9.3-5.2,14.4-15.5,15.3
						c-5.1,0.5-9.3,2.3-12.7,5.5c-3.4,3.2-5,7.4-5,12.5v51.1c0,4.5-1.5,8.1-4.3,10.9c-2.9,2.8-6.6,4.2-11.1,4.2s-7.9-1.4-10.7-4.2
						c-2.8-2.8-3.9-6.4-3.9-10.9v-51.1c0-13.7,4.4-25.1,13.8-34.4C525.2,166.1,536.5,161.4,550.1,161.4 M550.1,126.4
						c-22.7,0-43.1,8.3-59,24.1c-15.8,15.7-24.2,36.2-24.2,59.3v51.1c0,17.8,7.7,29.2,14.2,35.7c9.4,9.4,21.7,14.4,35.4,14.4
						c13.6,0,26.2-5,35.5-14.1c9.6-9.4,14.9-22.2,14.9-36v-37.2c20.3-6.9,33.2-24.6,33.2-47.2c0-13.5-5.2-26.2-14.5-35.5
						C576.3,131.6,563.7,126.4,550.1,126.4L550.1,126.4z"/>
				</g>
				<g id="XMLID_444_">
					<path id="XMLID_449_" class="st5" d="M632.8,294c-21,0-38.9-7.3-53.3-21.8c-14.4-14.4-21.6-32.4-21.6-53.3
						c0-20.9,7.3-38.9,21.7-53.2c14.4-14.4,32.3-21.7,53.2-21.7c20.9,0,38.9,7.3,53.3,21.6c14.5,14.4,21.8,32.3,21.8,53.3
						c0,20.9-7.3,38.9-21.8,53.4C671.7,286.6,653.7,294,632.8,294z M632.8,209.3c-2.8,0-4.8,0.8-6.8,2.8c-2,2-2.8,3.9-2.8,6.8
						c0,2.9,0.8,4.9,2.8,7c2,2,3.8,2.8,6.7,2.8c2.8,0,4.8-0.8,6.9-2.9c2-2,2.9-4,2.9-6.9c0-2.8-0.8-4.7-2.8-6.7
						C637.7,210.1,635.7,209.3,632.8,209.3z"/>
					<path id="XMLID_445_" class="st6" d="M632.8,161.4c16.2,0,29.9,5.5,41,16.5c11.1,11,16.7,24.7,16.7,40.9s-5.6,29.9-16.7,41
						c-11.1,11.1-24.8,16.7-41,16.7c-16.2,0-29.8-5.6-40.9-16.7c-11-11.1-16.5-24.8-16.5-41s5.5-29.8,16.5-40.9
						C603,166.9,616.6,161.4,632.8,161.4 M632.8,246.1c7.5,0,13.9-2.7,19.3-8c5.3-5.3,8-11.7,8-19.3c0-7.5-2.7-13.9-8-19.1
						c-5.3-5.3-11.7-7.9-19.3-7.9c-7.5,0-13.9,2.6-19.1,7.9c-5.3,5.3-7.9,11.6-7.9,19.1c0,7.5,2.6,13.9,7.9,19.3
						C618.9,243.4,625.3,246.1,632.8,246.1 M632.8,126.4c-25.4,0-48.1,9.3-65.6,26.8c-17.5,17.5-26.8,40.2-26.8,65.6
						c0,25.3,9.2,48,26.7,65.6c17.5,17.7,40.3,27,65.7,27c25.4,0,48.1-9.3,65.7-26.9c17.6-17.6,26.9-40.3,26.9-65.7
						c0-25.4-9.3-48.2-27-65.7C680.8,135.7,658.1,126.4,632.8,126.4L632.8,126.4z"/>
				</g>
				<g id="XMLID_439_">
					<path id="XMLID_443_" class="st5" d="M708.8,471.3c-9.9,0-18.8-3.6-25.7-10.5c-6.9-6.9-10.5-15.8-10.5-25.7
						c0-9.8,3.7-18.7,10.8-25.6c6.9-6.8,15.7-10.4,25.4-10.4c9.7,0,18.5,3.6,25.4,10.4c7.1,6.9,10.8,15.7,10.8,25.6
						c0,9.9-3.6,18.8-10.5,25.7C727.5,467.7,718.7,471.3,708.8,471.3z"/>
					<path id="XMLID_440_" class="st6" d="M708.8,416.6c5.1,0,9.5,1.8,13.2,5.4c3.7,3.6,5.5,8,5.5,13.1c0,5.3-1.8,9.7-5.4,13.3
						s-8,5.4-13.3,5.4c-5.3,0-9.7-1.8-13.3-5.4c-3.6-3.6-5.4-8-5.4-13.3c0-5.1,1.8-9.5,5.5-13.1
						C699.3,418.4,703.7,416.6,708.8,416.6 M708.8,381.6c-14.4,0-27.4,5.3-37.7,15.4c-10.3,10.1-16,23.6-16,38.1
						c0,14.6,5.4,27.8,15.7,38c10.2,10.2,23.4,15.7,38,15.7c14.4,0,27.9-5.6,38-15.7c10.2-10.2,15.7-23.4,15.7-38
						c0-14.4-5.7-27.9-16-38.1C736.1,387,723.1,381.6,708.8,381.6L708.8,381.6z"/>
				</g>
				<g id="XMLID_425_">
					<path id="XMLID_432_" class="st5" d="M817.1,473.8c-27.3,0-50.7-9.6-69.6-28.5C728.6,426.4,719,403,719,375.9
						c0-11.5,1.7-22.3,5.1-32.4h-25.6c0.3,3,0.5,6,0.5,9.1c0,18.5-7.3,36.3-21.8,53c-0.8,0.9-1.7,1.9-2.6,2.9
						c5.7,1.4,10.8,4.3,15,8.6c6.1,6.1,9.4,14.5,9.4,23.6c0,9.3-3.3,17.4-9.6,23.5c-6.2,6-14.2,9.2-23.2,9.2h-84.7
						c-25.7,0-34.8-16.5-34.8-30.6c0-11.8,6.1-22.3,17.2-29.7l0.1-0.1c8.6-5.6,18.3-12.4,28.8-20l0.1-0.1
						c11.5-8.2,20.7-15.6,27.3-22c13.2-12.5,13.3-18.2,13.3-18.4c0-2.8-0.8-4.6-2.8-6.6c-2.5-2.5-4-2.5-4.5-2.5h-4.9
						c-0.5,0-1.9,0-4.3,2.4c-2,2-2.8,3.7-2.8,6.5c0,9.2-3.3,17.3-9.4,23.4c-6.2,6.2-14.3,9.4-23.4,9.4c-9.3,0-17.4-3.3-23.5-9.5
						c-6-6.1-9.1-14.1-9.1-23.1c0-3.1,0.2-6.2,0.5-9.2H269.8c-19.5,0-39-7.4-51-19.4c-12.6-12.6-19.3-28.9-19.3-47.2v-55.4h-27v39.4
						c0,11.9-5.1,19.3-9.3,23.5c-6.2,6.1-14,9.1-23,9.1c-9.2,0-17.2-3.2-23.3-9.3c-6.1-6.1-9.3-14.1-9.3-23.3V130.4
						c0-9.2,3.2-17.2,9.3-23.3c6.1-6.1,14.1-9.3,23.3-9.3c9,0,17,3.2,23.1,9.1c4.3,4.2,9.3,11.6,9.3,23.5v26.1h27v-26.1
						c0-9.1,3.3-17.1,9.4-23.3c6.1-6.1,14.2-9.3,23.4-9.3c9.1,0,17.2,3.2,23.3,9.1c4.5,4.4,7.5,9.7,8.9,15.6c0.9-1,1.9-2,2.9-3
						c14.2-14.2,32.7-21.7,53.5-21.7c21,0,39,7.3,53.4,21.6c1,1,2,2.1,3,3.1c1.6-7,5-11.8,8.1-14.9c6.1-6.3,14.2-9.6,23.3-9.6
						c9.1,0,17.2,3.2,23.4,9.4c6.1,6.1,9.4,14.2,9.4,23.4V155c5.7-7,14.5-11.1,25.6-11.1c9.1,0,17.1,3.2,23.2,9.1
						c6.2,6.1,9.5,14.2,9.5,23.5c0,12.3-3,23.4-9,33.3c9,11.3,13.7,25,13.7,40.5c0,0,0,26.6,0,26.7c0,0,0.1,0.1,0.1,0.1
						c0.4,0.1,1.1,0.3,2,0.3h113.7c0.3,0,0.7,0,1,0c0.8,0,1.7-0.1,2.6-0.1s1.7,0,2.6,0.1c0.3,0,0.7,0,1,0h63.1
						c-2.3-4.2-4.1-9.6-4.1-16.6v-51.1c0-18.5,6.4-34.3,19.1-46.9c12.7-12.6,28.5-19,46.8-19c18.4,0,34.1,6.4,46.9,19
						c12.7,12.6,19.2,28.4,19.2,46.9v67.1c0,0.2,0,0.3,0,0.3c0,0,0.1,0.1,0.2,0.2c0,0,0,0,0,0c0,0,1.9,0,2.7,0H960l17.5,17.5v21.2
						c0.3,2.6,0.1,5-0.1,6.9c0,0.5-0.1,1.1-0.1,1.4c0-0.1,0-1.4-0.5-3.3L960,343.5h-50c3.4,10.1,5.2,20.9,5.2,32.4
						c0,27.1-9.6,50.4-28.5,69.4C867.7,464.2,844.3,473.8,817.1,473.8z M813.7,343.5c-7.5,0-14,2.9-20.1,9
						c-6.3,6.3-9.3,13.7-9.3,23.2c0,9.5,3,16.9,9.4,23.3c6.4,6.4,13.8,9.4,23.3,9.4c9.5,0,16.9-3,23.3-9.4
						c6.4-6.4,9.4-13.8,9.4-23.3c0-9.4-3-16.8-9.4-23.2c-6.1-6.1-12.6-9.1-20-9.1H813.7z M753.5,277.5c0-0.2,0-11.1,0-11.1
						l-0.4-56.5c-0.1-0.1-0.2-0.2-0.3-0.4c-0.1-0.1-0.1-0.1-0.2-0.1c0,0-0.1,0-0.2,0c-0.3,0-0.5,0-0.6,0.1c0,0-0.1,0-0.1,0.1
						c-0.1,0.1-0.1,0.1-0.1,0.1c0,0,0,0.1,0,0.2v51.1c0,6.9-1.8,12.4-4.1,16.6H753.5z M439.5,277.5c0-0.2,0-4.7,0-4.7
						c-0.6,1.7-1.4,3.3-2.2,4.7H439.5z M330.5,277.5c0-0.2,0-30.3,0-30.3c-3.2,0.4-6.4,0.6-9.7,0.6c-3.3,0-6.4-0.4-9.3-1.2v14.4
						c0,6.1-1.5,11.7-4.3,16.6H330.5z M320.9,163.2c-2.9,0-4.8,0.8-6.7,2.8c-1.9,1.9-2.7,3.8-2.7,6.8v11c3-0.8,6.1-1.2,9.4-1.2
						c2.8,0,4.8-0.8,6.9-2.9c2-2,2.9-4,2.9-6.9c0-2.8-0.8-4.7-2.8-6.7C325.8,164,323.8,163.2,320.9,163.2z"/>
					<path id="XMLID_426_" class="st6" d="M321,115.3c16.2,0,30,5.5,41.1,16.5c11.1,11,16.9,24.7,16.9,40.9v104.2
						c0,5.1,1.5,9.3,4.9,12.9c3.5,3.5,10.5,5.2,15.6,5.2h1.1h59.6c-2.2-5-3.2-11.5-3.2-18.1v-26.6c0-5.1-1.8-9.6-5.3-13
						c-3.5-3.5-7.9-5.4-13-5.4H424v28.9c0,4.5-1.3,8.1-4.2,10.9c-2.9,2.8-6.4,4.2-10.9,4.2c-4.5,0-8.1-1.4-10.8-4.2
						c-2.8-2.8-4-6.4-4-10.9V130.8c0-4.5,1.2-8.2,4-11c2.8-2.8,6.3-4.3,10.8-4.3c4.5,0,8.2,1.4,11,4.3c2.8,2.9,4.2,6.5,4.2,11v63.7
						l9.7,0.2c0.2,0,0.4,0,0.6,0c4.7,0,8.8-1.7,12.3-5.1c3.6-3.5,5.4-7.8,5.4-12.7c0-10.4,5-15.5,15.1-15.5c4.5,0,8.2,1.4,11,4.2
						c2.8,2.8,4.2,6.4,4.2,10.9c0,13.7-5,25.3-14.9,34.9c13.2,9.8,19.6,22.7,19.6,39v26.6c0,5.1,1.9,9.3,5.5,12.9
						c3.5,3.5,9,5.2,14.1,5.2h0.9h112.8c1.2,0,2.4-0.1,3.6-0.1c1.2,0,2.4,0.1,3.6,0.1h146.4c-2.1-5-2.9-11.5-2.9-18.1v-10.6
						l-0.4-56.5c0-5-1.9-9.2-5.5-12.7c-3.5-3.5-7.8-5.3-12.7-5.3c-5.1,0-9.5,1.7-13,5.2c-3.5,3.5-5.4,7.7-5.4,12.8v51.1
						c0,4.5-1.3,8.1-4.1,10.9c-2.9,2.8-6.4,4.2-10.9,4.2c-4.5,0-8.1-1.4-10.9-4.2c-2.8-2.8-4.1-6.4-4.1-10.9v-51.1
						c0-13.7,4.6-25.1,14-34.4c9.4-9.3,20.8-14,34.5-14c13.7,0,25.2,4.7,34.5,14c9.4,9.3,14,20.8,14,34.4v67.1
						c0,5.1,1.8,9.4,5.3,12.9c3.1,3.1,6.8,4.7,11,5.2c1.4,0,2.7,0,4.1,0H960v22.7c0.6,1.5-0.6,6.3,0,8.3h-79.4
						c11.4,14,17.1,30.7,17.1,49.9c0,22.5-7.8,41.4-23.4,57c-15.6,15.6-34.7,23.4-57.2,23.4c-22.5,0-41.6-7.7-57.2-23.4
						c-15.6-15.6-23.4-34.6-23.4-57.1c0-19.2,5.7-35.9,17.1-49.9h-78.3c4.2,8,6.3,16.6,6.3,26.6c0,14.4-5.9,28-17.6,41.6
						c-6.6,7.7-18.2,17.9-34.7,30.9h36.9c4.5,0,8.2,1.7,11,4.5c2.8,2.9,4.3,6.8,4.3,11.3s-1.4,8.2-4.3,11c-2.9,2.8-6.5,4.3-11,4.3
						h-84.7c-11.6,0-17.3-4.4-17.3-13.1c0-5.9,3.2-11,9.5-15.2c8.7-5.7,18.5-12.5,29.5-20.5c12.2-8.7,21.9-16.6,29.3-23.6
						c12.5-11.9,18.7-22.2,18.7-31c0-7.5-2.7-13.8-8-19c-4.7-4.7-10.3-7.6-16.8-7.6h-4.9c-6.5,0-12,2.9-16.7,7.6
						c-5.3,5.3-7.9,11.4-7.9,18.9c0,4.5-1.4,8.2-4.3,11c-2.9,2.9-6.5,4.3-11,4.3c-4.5,0-8.1-1.4-10.9-4.2c-2.8-2.8-4.2-6.4-4.2-10.9
						c0-9.9,2.1-18.7,6.2-26.7h-65.2h-0.9H400.7h-1.1H269.8c-13.7,0-29.3-4.9-38.6-14.3c-9.4-9.4-14.2-21.1-14.2-34.8V204h-62v56.9
						c0,4.5-1.2,8.1-4.1,10.9c-2.9,2.8-6.3,4.2-10.8,4.2c-4.5,0-8.2-1.4-10.9-4.2c-2.8-2.8-4.2-6.4-4.2-10.9V130.4
						c0-4.5,1.4-8.1,4.1-10.9c2.8-2.8,6.4-4.2,10.9-4.2s8.1,1.4,10.9,4.2c2.8,2.8,4,6.4,4,10.9V174h62v-43.6c0-4.5,1.5-8.1,4.3-10.9
						c2.8-2.8,6.6-4.2,11.1-4.2s8.3,1.4,11.1,4.2c2.8,2.8,4.5,6.4,4.5,10.9v146.6c0,5.1,1.5,9.3,5.1,12.9c3.5,3.5,11.6,5.2,16.7,5.2
						h81.6c-2.2-5-3.4-11.5-3.4-18.1v-53.4c-8,4.5-17.6,6.8-27.2,6.8c-4.5,0-8.1-1.4-10.8-4.3c-2.8-2.8-4.2-6.5-4.2-11
						c0-4.5,1.4-8.1,4.2-10.9c2.8-2.8,6.4-4.2,10.9-4.2c7.5,0,13.9-2.7,19.3-8c5.3-5.3,8-11.7,8-19.3c0-7.5-2.7-13.9-8-19.1
						c-5.3-5.3-11.7-7.9-19.2-7.9c-7.5,0-13.9,2.6-19.1,7.9c-5.3,5.3-7.8,11.6-7.8,19.1v88.3c0,4.5-1.5,8.1-4.4,10.9
						c-2.9,2.8-6.6,4.2-11.2,4.2c-4.5,0-8.3-1.4-11-4.2c-2.8-2.8-4.4-6.4-4.4-10.9v-88.3c0-16.2,5.8-29.8,16.8-40.9
						C290.9,120.8,304.8,115.3,321,115.3 M817.1,425.9c14.1,0,26-4.8,35.7-14.5c9.7-9.7,14.5-21.5,14.5-35.6
						c0-14.1-4.8-25.9-14.5-35.6c-8.9-8.9-19.7-14.2-32.4-14.2h-0.2h-0.9h-5.6c-12.8,0-23.6,5.3-32.4,14.1
						c-9.6,9.6-14.4,21.3-14.4,35.6c0,14.1,4.8,26,14.5,35.7C791.1,421,803,425.9,817.1,425.9 M321,80.3c-19.2,0-36.9,5.2-51.9,15.3
						c-0.4-0.4-0.8-0.8-1.2-1.2c-9.4-9.1-22-14.1-35.6-14.1c-13.8,0-26.5,5.1-35.8,14.4c-4.5,4.5-8,9.7-10.4,15.4
						c-2.9-7-7-12.1-10.7-15.7c-9.5-9.2-21.7-14.1-35.4-14.1c-13.7,0-26.4,5.1-35.6,14.4c-9.3,9.3-14.4,22-14.4,35.7v130.6
						c0,13.7,5.1,26.4,14.5,35.7c9.3,9.3,22,14.4,35.7,14.4c13.6,0,25.7-4.9,35.2-14.1c2.4-2.4,5-5.4,7.3-9.1
						c2.3,18.6,10.4,35.2,23.7,48.6c15.4,15.4,39.1,24.5,63.4,24.5h129.8h1.1h105.9h0.9h24.6c1.6,10.3,6.2,19.6,13.5,27.1
						c3.4,3.5,7.2,6.4,11.5,8.7c-0.9,0.6-1.7,1.1-2.5,1.7l-0.2,0.2c-16.1,10.8-25,26.5-25,44.3c0,15.4,6.4,28.8,18.1,37.7
						c9.1,6.9,20.6,10.4,34.2,10.4h84.7c13.5,0,26-5,35.4-14.2c9.6-9.4,14.9-22.2,14.9-36.1c0-2.8-0.2-5.5-0.6-8.2
						c5.1,9,11.5,17.4,19.2,25.1c11.1,11.1,23.7,19.5,37.5,25.2c13.7,5.6,28.6,8.4,44.4,8.4c15.8,0,30.7-2.9,44.5-8.5
						c13.8-5.7,26.4-14.1,37.5-25.2c22.3-22.3,33.7-49.8,33.7-81.7c0-5.1-0.3-10-0.9-14.9H960l32.7-43.3h1.3c1,4.1,0.9,7.1,0.8,7.7
						c0-0.3,0-0.5,0.1-0.8c0.2-2.2,0.5-5.4,0.1-9.3V295l-35-35H836v-50.2c0-23-8.4-43.5-24.4-59.3c-15.9-15.8-36.4-24.1-59.2-24.1
						c-22.8,0-43.2,8.3-59.1,24.1c-15.9,15.8-24.3,36.3-24.3,59.3V260h-41.4c-0.1,0-0.3,0-0.4,0c-0.8,0-2-0.1-3.3-0.1
						c-1.4,0-2.5,0-3.3,0.1c-0.1,0-0.3,0-0.4,0H522v-9.6c0-15.5-3.7-29.7-10.9-42c4.1-9.9,6.2-20.6,6.2-31.9
						c0-13.9-5.3-26.7-14.8-36c-9.5-9.2-21.7-14.1-35.4-14.1c-2.8,0-5.6,0.2-8.2,0.6c-0.9-12.2-5.9-23.5-14.3-31.9
						c-9.4-9.4-22.1-14.5-35.8-14.5c-14,0-26.4,5.1-35.8,14.9c-0.1,0.1-0.1,0.1-0.2,0.2C357.7,85.5,340.1,80.3,321,80.3L321,80.3z
						 M817.1,390.9c-5.5,0-8.3-1.6-10.9-4.3c-2.6-2.6-4.3-5.4-4.3-10.9c0-5.6,1.5-8.2,4.2-10.8c3.8-3.8,6.3-3.8,7.7-3.8h5.6h0.9h0.2
						c1.3,0,3.7,0,7.6,3.9c2.6,2.6,4.3,5.4,4.3,10.8c0,5.5-1.6,8.2-4.3,10.9C825.4,389.3,822.6,390.9,817.1,390.9L817.1,390.9z
						 M700.7,403.5c1-1.5,2-3.1,2.9-4.7c0.7,3.6,1.5,7.2,2.6,10.6c-1.3-1.6-2.6-3.2-4.1-4.7C701.6,404.3,701.1,403.9,700.7,403.5
						L700.7,403.5z"/>
				</g>
			</g>
		</g>
		<g id="XMLID_18_">
			<linearGradient id="XMLID_14_" gradientUnits="userSpaceOnUse" x1="708.7715" y1="421.9051" x2="708.7715" y2="465.0545">
				<stop  offset="0" style="stop-color:#E0AE12"/>
				<stop  offset="0.8587" style="stop-color:#E0AE12"/>
				<stop  offset="1" style="stop-color:#E0AE12"/>
			</linearGradient>
			<path id="XMLID_75_" class="st7" d="M708.8,457.8c-6.1,0-11.2-2.1-15.4-6.3s-6.3-9.4-6.3-15.4c0-5.9,2.2-11,6.4-15.2
				c4.2-4.2,9.4-6.3,15.3-6.3c5.9,0,11,2.1,15.3,6.3c4.3,4.2,6.4,9.3,6.4,15.2c0,6.1-2.1,11.2-6.3,15.4
				C720,455.7,714.8,457.8,708.8,457.8z"/>
			<path id="XMLID_71_" class="st8" d="M708.8,417.6c5.1,0,9.5,1.8,13.2,5.4c3.7,3.6,5.5,8,5.5,13.1c0,5.3-1.8,9.7-5.4,13.3
				s-8,5.4-13.3,5.4c-5.3,0-9.7-1.8-13.3-5.4c-3.6-3.6-5.4-8-5.4-13.3c0-5.1,1.8-9.5,5.5-13.1C699.3,419.4,703.7,417.6,708.8,417.6
				 M708.8,411.6c-6.7,0-12.5,2.4-17.4,7.1c-4.9,4.8-7.3,10.6-7.3,17.3c0,6.9,2.4,12.8,7.2,17.5c4.7,4.8,10.6,7.2,17.5,7.2
				c6.9,0,12.8-2.4,17.5-7.2c4.8-4.8,7.2-10.6,7.2-17.5c0-6.8-2.5-12.6-7.3-17.3C721.3,414,715.5,411.6,708.8,411.6L708.8,411.6z"/>
		</g>
		<g id="XMLID_34_">
			<g id="XMLID_301_">
				<g id="XMLID_317_">
					<linearGradient id="XMLID_15_" gradientUnits="userSpaceOnUse" x1="534.6478" y1="157.9596" x2="531.0742" y2="279.4627">
						<stop  offset="0" style="stop-color:#246596"/>
						<stop  offset="0.8587" style="stop-color:#246596"/>
						<stop  offset="1" style="stop-color:#246596"/>
					</linearGradient>
					<path id="XMLID_321_" class="st9" d="M516.6,279c-5.2,0-9.4-1.6-12.8-5c-3.2-3.2-4.8-7.5-4.8-13v-51.1c0-14.6,5-26.9,14.7-36.6
						c10.1-10,22-14.8,36.4-14.8c5.2,0,9.5,1.7,12.9,5.2c3.4,3.4,5.2,7.8,5.2,12.9c0,7.6-3.2,17-18.3,18.3c-4.4,0.4-8,1.9-10.9,4.7
						c-2.8,2.6-4.1,6-4.1,10.3v51.1c0,5.3-1.8,9.7-5.2,13.1C526.3,277.3,521.9,279,516.6,279z"/>
					<path id="XMLID_318_" class="st10" d="M550.1,161.4c4.4,0,8,1.4,10.8,4.3c2.8,2.9,4.3,6.5,4.3,10.8c0,9.3-5.2,14.4-15.5,15.3
						c-5.1,0.5-9.3,2.3-12.7,5.5c-3.4,3.2-5,7.4-5,12.5v51.1c0,4.5-1.5,8.1-4.3,10.9c-2.9,2.8-6.6,4.2-11.1,4.2s-7.9-1.4-10.7-4.2
						c-2.8-2.8-3.9-6.4-3.9-10.9v-51.1c0-13.7,4.4-25.1,13.8-34.4C525.2,166.1,536.5,161.4,550.1,161.4 M550.1,155.4
						c-15.1,0-28,5.3-38.5,15.7c-10.4,10.3-15.6,23.3-15.6,38.7v51.1c0,6.3,1.9,11.4,5.7,15.2c4,4,8.9,5.9,14.9,5.9
						c6,0,11.3-2,15.3-5.9c4-3.9,6.1-9.2,6.1-15.2v-51.1c0-3.5,1-6.1,3.2-8.2c2.4-2.3,5.4-3.5,9.1-3.9c13.3-1.2,21-8.9,21-21.3
						c0-6-2-11-6-15C561.2,157.5,556.1,155.4,550.1,155.4L550.1,155.4z"/>
				</g>
				<g id="XMLID_308_">
					<linearGradient id="XMLID_23_" gradientUnits="userSpaceOnUse" x1="632.6862" y1="158.4494" x2="629.1271" y2="279.4587">
						<stop  offset="0" style="stop-color:#246596"/>
						<stop  offset="0.8587" style="stop-color:#246596"/>
						<stop  offset="1" style="stop-color:#246596"/>
					</linearGradient>
					<path id="XMLID_314_" class="st11" d="M630.8,279.5c-17,0-31.4-5.9-43-17.5c-11.6-11.6-17.4-26.1-17.4-43.1
						c0-17,5.9-31.4,17.4-43c11.6-11.6,26-17.4,43-17.4c17,0,31.5,5.9,43.1,17.4c11.6,11.6,17.5,26,17.5,43c0,17-5.9,31.5-17.5,43.1
						C662.3,273.6,647.8,279.5,630.8,279.5z M630.8,194.8c-6.7,0-12.3,2.3-17,7c-4.7,4.7-7,10.3-7,17c0,6.8,2.3,12.4,7,17.1
						c4.7,4.8,10.3,7.1,17,7.1c6.7,0,12.3-2.3,17.1-7.1c4.8-4.8,7.1-10.4,7.1-17.1c0-6.7-2.3-12.3-7.1-17
						C643.2,197.1,637.5,194.8,630.8,194.8z"/>
					<path id="XMLID_309_" class="st10" d="M630.8,161.4c16.2,0,29.9,5.5,41,16.5c11.1,11,16.7,24.7,16.7,40.9s-5.6,29.9-16.7,41
						c-11.1,11.1-24.8,16.7-41,16.7c-16.2,0-29.8-5.6-40.9-16.7c-11-11.1-16.5-24.8-16.5-41s5.5-29.8,16.5-40.9
						C601,166.9,614.6,161.4,630.8,161.4 M630.8,246.1c7.5,0,13.9-2.7,19.3-8c5.3-5.3,8-11.7,8-19.3c0-7.5-2.7-13.9-8-19.1
						c-5.3-5.3-11.7-7.9-19.3-7.9c-7.5,0-13.9,2.6-19.1,7.9c-5.3,5.3-7.9,11.6-7.9,19.1c0,7.5,2.6,13.9,7.9,19.3
						C616.9,243.4,623.3,246.1,630.8,246.1 M630.8,155.4c-17.8,0-33,6.2-45.1,18.3c-12.1,12.1-18.3,27.3-18.3,45.1
						c0,17.8,6.2,33,18.3,45.2c12.1,12.2,27.3,18.4,45.1,18.4c17.8,0,33-6.2,45.2-18.4c12.2-12.2,18.4-27.4,18.4-45.2
						c0-17.8-6.2-33-18.4-45.1C663.8,161.6,648.6,155.4,630.8,155.4L630.8,155.4z M630.8,240.1c-5.9,0-10.8-2-14.9-6.2
						c-4.1-4.2-6.2-9.1-6.2-15c0-5.9,2-10.8,6.1-14.9c4.1-4.1,9-6.1,14.9-6.1c5.9,0,10.8,2,15,6.2c4.2,4.1,6.2,9,6.2,14.9
						c0,5.9-2,10.8-6.2,15C641.6,238,636.7,240.1,630.8,240.1L630.8,240.1z"/>
				</g>
				<g id="XMLID_302_">
					<linearGradient id="XMLID_53_" gradientUnits="userSpaceOnUse" x1="537.0416" y1="412.985" x2="533.6151" y2="529.4882">
						<stop  offset="0" style="stop-color:#246596"/>
						<stop  offset="0.8587" style="stop-color:#246596"/>
						<stop  offset="1" style="stop-color:#246596"/>
					</linearGradient>
					<path id="XMLID_307_" class="st12" d="M269.8,329c-15.5,0-31.5-6-40.8-15.2c-10-10-15-22.4-15-36.9V207h-56v53.9
						c0,5.5-1.6,9.8-5,13.1c-3.5,3.4-7.7,5-12.9,5c-5.3,0-9.7-1.7-13.1-5c-3.4-3.4-5.1-7.8-5.1-13V130.4c0-5.3,1.7-9.7,5-13
						c3.3-3.3,7.7-5,13-5c5.2,0,9.6,1.7,13,5c3.3,3.2,4.9,7.5,4.9,13.1V171h56v-40.6c0-5.2,1.7-9.6,5.2-13c3.3-3.3,7.9-5,13.2-5
						c5.3,0,9.9,1.7,13.2,5c3.5,3.5,5.4,8,5.4,13.1v146.6c0,4.5,1.3,7.9,4.2,10.7c2.6,2.6,9.6,4.3,14.6,4.3h77.3
						c-1.4-4.6-2.1-9.8-2.1-15.1v-48.5c-7.3,3.2-15.5,4.9-24.2,4.9c-5.3,0-9.7-1.7-13-5.2c-3.3-3.4-5-7.8-5-13.1c0-5.3,1.7-9.7,5-13
						c3.3-3.3,7.7-5,13-5c6.7,0,12.3-2.3,17.1-7.1c4.8-4.8,7.1-10.4,7.1-17.1c0-6.7-2.3-12.3-7.1-17c-4.8-4.7-10.4-7-17.1-7
						c-6.7,0-12.3,2.3-17,7c-4.7,4.7-6.9,10.2-6.9,17v88.3c0,5.2-1.8,9.6-5.3,13.1c-3.4,3.3-8,5-13.2,5c-5.3,0-9.9-1.7-13.2-5
						c-3.5-3.5-5.3-8-5.3-13v-88.3c0-16.8,6-31.2,17.7-43c11.6-11.6,26.1-17.4,43.3-17.4c17,0,31.6,5.9,43.2,17.4
						c11.8,11.7,17.8,26.2,17.8,43v104.2c0,4.5,1.3,7.9,4.1,10.8c2.7,2.8,9,4.3,13.5,4.3H456c-1.3-4.4-2-9.6-2-15.1v-26.6
						c0-4.3-1.5-8-4.4-10.9c-3-3-6.7-4.5-10.9-4.5H427v25.9c0,5.4-1.7,9.8-5.1,13.1c-3.4,3.3-7.8,5-13,5c-5.3,0-9.6-1.7-13-5
						c-3.2-3.2-4.9-7.6-4.9-13V130.8c0-5.5,1.6-9.8,4.9-13.1c3.4-3.5,7.6-5.2,12.9-5.2c5.3,0,9.7,1.7,13.1,5.2
						c3.4,3.4,5.1,7.8,5.1,13.2v60.8l6.8,0.2c0.2,0,0.4,0,0.5,0c3.9,0,7.3-1.4,10.2-4.2c3-3,4.5-6.4,4.5-10.6
						c0-12,6.4-18.5,18.1-18.5c5.3,0,9.7,1.7,13.1,5c3.4,3.3,5.1,7.7,5.1,13.1c0,13.2-4.5,24.9-13.5,34.6
						c12.1,10,18.2,23.2,18.2,39.3v26.6c0,4.1,1.5,7.7,4.6,10.7c2.7,2.7,7.2,4.3,12,4.3h263.1c-1.1-4.2-1.7-9.3-1.7-15.1v-10.6
						l-0.4-56.5c0-4.1-1.5-7.5-4.6-10.6c-3-3-6.4-4.4-10.6-4.4c-4.4,0-7.9,1.4-10.9,4.3c-3,3-4.5,6.5-4.5,10.7v51.1
						c0,5.4-1.7,9.8-5.1,13.1c-3.5,3.4-7.7,5-13,5c-5.3,0-9.6-1.7-13-5c-3.3-3.3-5-7.7-5-13v-51.1c0-14.5,5-26.8,14.9-36.6
						c9.9-9.8,22.2-14.8,36.6-14.8c14.4,0,26.7,5,36.7,14.8c9.9,9.8,14.9,22.1,14.9,36.6v67.1c0,4.2,1.5,7.7,4.5,10.7
						c2.9,2.9,6.5,4.3,10.9,4.3H960l3,3v22.3c0.3,1.3,0.1,2.8,0,4.6c-0.1,1.1-0.2,2.8-0.1,3.3L960,329H269.8z"/>
					<path id="XMLID_303_" class="st10" d="M321,115.3c16.2,0,30,5.5,41.1,16.5c11.1,11,16.9,24.7,16.9,40.9v104.2
						c0,5.1,1.5,9.3,4.9,12.9c3.5,3.5,10.5,5.2,15.6,5.2h1.1h59.6c-2.2-5-3.2-11.5-3.2-18.1v-26.6c0-5.1-1.8-9.6-5.3-13
						c-3.5-3.5-7.9-5.4-13-5.4H424v28.9c0,4.5-1.3,8.1-4.2,10.9c-2.9,2.8-6.4,4.2-10.9,4.2c-4.5,0-8.1-1.4-10.8-4.2
						c-2.8-2.8-4-6.4-4-10.9V130.8c0-4.5,1.2-8.2,4-11c2.8-2.8,6.3-4.3,10.8-4.3c4.5,0,8.2,1.4,11,4.3c2.8,2.9,4.2,6.5,4.2,11v63.7
						l9.7,0.2c0.2,0,0.4,0,0.6,0c4.7,0,8.8-1.7,12.3-5.1c3.6-3.5,5.4-7.8,5.4-12.7c0-10.4,5-15.5,15.1-15.5c4.5,0,8.2,1.4,11,4.2
						c2.8,2.8,4.2,6.4,4.2,10.9c0,13.7-5,25.3-14.9,34.9c13.2,9.8,19.6,22.7,19.6,39v26.6c0,5.1,1.9,9.3,5.5,12.9
						c3.5,3.5,9,5.2,14.1,5.2h0.9h266.4c-2.1-5-2.9-11.5-2.9-18.1v-10.6l-0.4-56.5c0-5-1.9-9.2-5.5-12.7c-3.5-3.5-7.8-5.3-12.7-5.3
						c-5.1,0-9.5,1.7-13,5.2c-3.5,3.5-5.4,7.7-5.4,12.8v51.1c0,4.5-1.3,8.1-4.1,10.9c-2.9,2.8-6.4,4.2-10.9,4.2
						c-4.5,0-8.1-1.4-10.9-4.2c-2.8-2.8-4.1-6.4-4.1-10.9v-51.1c0-13.7,4.6-25.1,14-34.4c9.4-9.3,20.8-14,34.5-14
						c13.7,0,25.2,4.7,34.5,14c9.4,9.3,14,20.8,14,34.4v67.1c0,5.1,1.8,9.3,5.3,12.9c3.5,3.5,7.9,5.2,13,5.2h0.9H960v22.7
						c1,1.5-0.6,6.3,0,8.3H820.2h-0.9H507.5h-0.9H400.7h-1.1H269.8c-13.7,0-29.3-4.9-38.6-14.3c-9.4-9.4-14.2-21.1-14.2-34.8V204
						h-62v56.9c0,4.5-1.2,8.1-4.1,10.9c-2.9,2.8-6.3,4.2-10.8,4.2s-8.2-1.4-10.9-4.2c-2.8-2.8-4.2-6.4-4.2-10.9V130.4
						c0-4.5,1.4-8.1,4.1-10.9c2.8-2.8,6.4-4.2,10.9-4.2c4.5,0,8.1,1.4,10.9,4.2c2.8,2.8,4,6.4,4,10.9V174h62v-43.6
						c0-4.5,1.5-8.1,4.3-10.9c2.8-2.8,6.6-4.2,11.1-4.2c4.5,0,8.3,1.4,11.1,4.2c2.8,2.8,4.5,6.4,4.5,10.9v146.6
						c0,5.1,1.5,9.3,5.1,12.9c3.5,3.5,11.6,5.2,16.7,5.2h81.6c-2.2-5-3.4-11.5-3.4-18.1v-53.4c-8,4.5-17.6,6.8-27.2,6.8
						c-4.5,0-8.1-1.4-10.8-4.3c-2.8-2.8-4.2-6.5-4.2-11c0-4.5,1.4-8.1,4.2-10.9c2.8-2.8,6.4-4.2,10.9-4.2c7.5,0,13.9-2.7,19.3-8
						c5.3-5.3,8-11.7,8-19.3c0-7.5-2.7-13.9-8-19.1c-5.3-5.3-11.7-7.9-19.2-7.9c-7.5,0-13.9,2.6-19.1,7.9
						c-5.3,5.3-7.8,11.6-7.8,19.1v88.3c0,4.5-1.5,8.1-4.4,10.9c-2.9,2.8-6.6,4.2-11.2,4.2c-4.5,0-8.3-1.4-11-4.2
						c-2.8-2.8-4.4-6.4-4.4-10.9v-88.3c0-16.2,5.8-29.8,16.8-40.9C290.9,120.8,304.8,115.3,321,115.3 M321,109.3
						c-18,0-33.3,6.2-45.4,18.3c-12.3,12.3-18.6,27.5-18.6,45.1v88.3c0,5.9,2.1,11.1,6.2,15.2c3.9,3.9,9.2,5.9,15.3,5.9
						c6.1,0,11.4-2,15.3-5.9c4.1-4,6.2-9.2,6.2-15.2v-42.8c1,4.7,2.5,8.8,5.7,12.1c3.9,4,9,6.1,15.1,6.1c7.4,0,14.2-1.2,21.2-3.5
						v44.1c0,4.1,0.4,8.2,1.3,12.1h-73.5c-4.6,0-10.7-1.7-12.5-3.5c-2.3-2.3-3.3-4.9-3.3-8.6V130.4c0-5.9-2.2-11.2-6.3-15.2
						c-3.9-3.8-9.2-5.9-15.3-5.9c-6.1,0-11.4,2-15.3,5.9c-4,4-6.1,9.2-6.1,15.2V168h-50v-37.6c0-6.3-2-11.4-5.9-15.2
						c-4-3.9-9.1-5.9-15.1-5.9c-6.1,0-11.2,2-15.1,5.9c-3.9,3.9-5.9,9-5.9,15.2v130.6c0,6.1,2,11.2,6,15.2c3.9,3.9,9,5.9,15.2,5.9
						c5.9,0,11-2,15-5.9c3.9-3.8,5.9-8.9,5.9-15.2V210h50v66.9c0,15.3,5.4,28.5,15.9,39c9.9,9.9,26.3,16.1,42.9,16.1h129.8h1.1
						h105.9h0.9h311.8h0.9H960l5.8-7.6c0.1,0.2,0.1,0.3,0.1,0.3c0-0.4,0.1-1.8,0.1-2.6c0.2-1.8,0-3.5,0-5.1v-22l-6-6H820.2h-0.9
						c-3.6,0-6.4-1.1-8.7-3.5c-2.4-2.4-3.6-5.2-3.6-8.6v-67.1c0-15.3-5.3-28.3-15.8-38.7c-10.5-10.4-23.5-15.7-38.8-15.7
						c-15.2,0-28.2,5.3-38.7,15.7c-10.4,10.4-15.7,23.4-15.7,38.7v51.1c0,6.2,2,11.3,5.8,15.2c3.9,3.9,9,5.9,15.1,5.9
						c6,0,11.1-2,15.1-5.9c4-3.9,6-9,6-15.2v-51.1c0-3.4,1.2-6.2,3.6-8.5c2.4-2.3,5.3-3.5,8.8-3.5c3.4,0,6.1,1.1,8.5,3.5
						c2.5,2.5,3.7,5.3,3.7,8.5l0.4,56.6v10.5c0,4.4,0.3,8.5,1,12.1H507.5h-0.9c-4,0-7.8-1.3-9.9-3.5c-2.5-2.5-3.7-5.3-3.7-8.6v-26.6
						c0-15.9-5.7-29.2-16.9-39.5c8.1-9.8,12.2-21.3,12.2-34.3c0-6.2-2-11.3-6-15.2c-4-3.9-9.1-5.9-15.2-5.9
						c-13.4,0-21.1,7.8-21.1,21.5c0,3.4-1.1,6-3.6,8.4c-2.3,2.3-5,3.4-8.1,3.4c-0.1,0-0.3,0-0.4,0l-3.9-0.1v-57.9
						c0-6.2-2-11.3-6-15.3c-4-4-9.1-6-15.3-6c-6.1,0-11.1,2-15.1,6.1c-3.8,3.9-5.7,9-5.7,15.2v130.1c0,6.2,1.9,11.3,5.8,15.2
						c3.9,3.9,9,5.9,15.1,5.9c6,0,11.1-2,15.1-5.9c4-3.9,6-9,6-15.2V238h8.7c3.4,0,6.3,1.2,8.8,3.6c2.3,2.3,3.5,5.2,3.5,8.7v26.6
						c0,4.2,0.4,8.3,1.2,12.1h-51.5h-1.1c-4.4,0-9.5-1.5-11.3-3.4c-2.2-2.3-3.2-5-3.2-8.7V172.7c0-17.6-6.3-32.8-18.7-45.1
						C354.1,115.4,338.9,109.3,321,109.3L321,109.3z M300,211.9v-39.2c0-5.9,2-10.8,6.1-14.9c4.1-4.1,9-6.1,14.9-6.1
						c5.9,0,10.8,2,15,6.2c4.2,4.1,6.2,9,6.2,14.9c0,5.9-2,10.8-6.2,15c-4.2,4.2-9.1,6.2-15,6.2c-6.1,0-11.2,2-15.2,5.9
						C302.5,203.1,301,207.1,300,211.9L300,211.9z"/>
				</g>
			</g>
		</g>
		<g id="XMLID_20_">
			<linearGradient id="XMLID_76_" gradientUnits="userSpaceOnUse" x1="817.0664" y1="326.26" x2="817.0664" y2="493.4671">
				<stop  offset="0" style="stop-color:#E0AE12"/>
				<stop  offset="0.3942" style="stop-color:#DEAC12"/>
				<stop  offset="0.3994" style="stop-color:#DEAC12"/>
				<stop  offset="0.9224" style="stop-color:#DEAC12"/>
				<stop  offset="1" style="stop-color:#DEAC12"/>
				<stop  offset="1" style="stop-color:#D9A812"/>
				<stop  offset="1" style="stop-color:#CA9C10"/>
				<stop  offset="1" style="stop-color:#B1890E"/>
				<stop  offset="1" style="stop-color:#8E6E0C"/>
				<stop  offset="1" style="stop-color:#614C08"/>
				<stop  offset="1" style="stop-color:#2C2204"/>
				<stop  offset="1" style="stop-color:#000000"/>
			</linearGradient>
			<path id="XMLID_118_" class="st13" d="M817.1,460.3c-23.2,0-43.2-8.2-59.3-24.3c-16.1-16.1-24.3-36.1-24.3-59.3
				c0-23.2,8.2-43.2,24.3-59.3c16.1-16.1,36.1-24.3,59.3-24.3c23.2,0,43.2,8.2,59.3,24.3c16.1,16.1,24.3,36.1,24.3,59.3
				c0,23.2-8.2,43.2-24.3,59.3S840.3,460.3,817.1,460.3z M817.1,329.5c-13.6,0-24.6,4.4-33.7,13.5c-9.1,9.1-13.5,20.1-13.5,33.7
				c0,13.4,4.5,24.4,13.6,33.6c9.2,9.2,20.2,13.6,33.6,13.6c13.4,0,24.4-4.5,33.6-13.6c9.2-9.2,13.6-20.2,13.6-33.6
				s-4.5-24.4-13.6-33.6C841.4,333.9,830.5,329.5,817.1,329.5z"/>
			<path id="XMLID_100_" class="st8" d="M817.1,296.1c22.5,0,41.6,7.8,57.2,23.4c15.6,15.6,23.4,34.7,23.4,57.2s-7.8,41.6-23.4,57.2
				c-15.6,15.6-34.7,23.4-57.2,23.4c-22.5,0-41.6-7.8-57.2-23.4c-15.6-15.6-23.4-34.7-23.4-57.2s7.8-41.6,23.4-57.2
				C775.5,303.9,794.6,296.1,817.1,296.1 M817.1,426.9c14.1,0,26-4.8,35.7-14.5s14.5-21.6,14.5-35.7c0-14.1-4.8-26-14.5-35.7
				c-9.7-9.7-21.6-14.5-35.7-14.5c-14.3,0-26.2,4.8-35.8,14.4c-9.6,9.6-14.4,21.5-14.4,35.8c0,14.1,4.8,26,14.5,35.7
				C791.1,422,803,426.9,817.1,426.9 M817.1,290.1c-24.1,0-44.7,8.5-61.4,25.2c-16.7,16.7-25.2,37.4-25.2,61.4
				c0,24.1,8.5,44.7,25.2,61.4c16.7,16.7,37.4,25.2,61.4,25.2c24.1,0,44.7-8.5,61.4-25.2c16.7-16.7,25.2-37.4,25.2-61.4
				c0-24.1-8.5-44.7-25.2-61.4C861.8,298.5,841.1,290.1,817.1,290.1L817.1,290.1z M817.1,420.9c-12.6,0-22.9-4.2-31.4-12.8
				c-8.6-8.6-12.8-18.9-12.8-31.4c0-12.7,4.1-23,12.7-31.6c8.5-8.5,18.8-12.7,31.6-12.7c12.6,0,22.9,4.2,31.4,12.8
				c8.6,8.6,12.8,18.9,12.8,31.4s-4.2,22.9-12.8,31.4C839.9,416.7,829.6,420.9,817.1,420.9L817.1,420.9z"/>
		</g>
		<g id="XMLID_16_">
			<linearGradient id="XMLID_77_" gradientUnits="userSpaceOnUse" x1="622.8799" y1="332.3842" x2="622.8799" y2="484.0642">
				<stop  offset="0" style="stop-color:#E0AE12"/>
				<stop  offset="0.8587" style="stop-color:#E0AE12"/>
				<stop  offset="1" style="stop-color:#E0AE12"/>
			</linearGradient>
			<path id="XMLID_60_" class="st14" d="M581.6,459.8c-16.8,0-20.3-8.7-20.3-16.1c0-6.9,3.6-12.8,10.8-17.6
				c8.7-5.7,18.6-12.5,29.4-20.4c12-8.6,21.7-16.5,29-23.4c11.8-11.2,17.8-20.9,17.8-28.9c0-6.7-2.3-12.3-7.1-17
				c-4.8-4.7-10.4-7-17.1-7c-6.7,0-12.3,2.3-17,7c-4.7,4.7-7,10.3-7,17c0,5.3-1.7,9.7-5.2,13.2c-3.4,3.4-7.8,5.2-13.2,5.2
				c-5.3,0-9.7-1.7-13.1-5.2c-3.3-3.4-5-7.8-5-13.1c0-17,5.9-31.4,17.4-43c11.6-11.6,26-17.4,43-17.4c17,0,31.5,5.9,43.1,17.4
				c11.6,11.6,17.5,26,17.5,43c0,15.1-6.2,29.8-18.3,43.8c-5.8,6.7-15.3,15.5-28.4,26.1h28.4c5.3,0,9.7,1.7,13.2,5.2
				c3.4,3.4,5.2,7.9,5.2,13.2c0,5.3-1.7,9.7-5.2,13.1c-3.4,3.3-7.8,5-13.1,5H581.6z"/>
			<path id="XMLID_55_" class="st8" d="M623.9,296.1c16.2,0,29.9,5.5,41,16.5c11.1,11,16.7,24.7,16.7,40.9
				c0,14.4-5.9,28.4-17.6,41.9c-6.1,7.1-16.5,16.5-31.1,28.2c-1.2,0.9-0.5,2.8,1,2.8h32.4c4.5,0,8.2,1.4,11,4.3
				c2.8,2.9,4.3,6.5,4.3,11s-1.4,8.1-4.3,10.9c-2.9,2.8-6.5,4.2-11,4.2h-84.7c-11.6,0-17.3-4.4-17.3-13.1c0-5.9,3.2-10.9,9.5-15.1
				c8.7-5.7,18.5-12.5,29.5-20.5c12.2-8.7,21.9-16.6,29.3-23.6c12.5-11.9,18.7-22.2,18.7-31.1c0-7.5-2.7-13.9-8-19.1
				c-5.3-5.3-11.7-7.9-19.3-7.9c-7.5,0-13.9,2.6-19.1,7.9c-5.3,5.3-7.9,11.6-7.9,19.1c0,4.5-1.4,8.2-4.3,11c-2.9,2.9-6.5,4.3-11,4.3
				s-8.1-1.4-10.9-4.3c-2.8-2.8-4.2-6.5-4.2-11c0-16.2,5.5-29.8,16.5-40.9C594.1,301.6,607.7,296.1,623.9,296.1 M623.9,290.1
				c-17.8,0-33,6.2-45.1,18.3c-12.1,12.1-18.3,27.3-18.3,45.1c0,6.1,2,11.2,5.9,15.2c3.9,4,9.1,6.1,15.2,6.1c6.1,0,11.3-2,15.3-6
				c4-4,6-9.1,6-15.3c0-5.9,2-10.8,6.1-14.9c4.1-4.1,9-6.1,14.9-6.1c5.9,0,10.8,2,15,6.2c4.2,4.1,6.2,9,6.2,14.9
				c0,7-5.8,16.2-16.8,26.7c-7.1,6.8-16.8,14.6-28.6,23.1c-10.8,7.9-20.7,14.7-29.3,20.3c-10.1,6.7-12.2,14.6-12.2,20.1
				c0,5.7,2.3,19.1,23.3,19.1h84.7c6.1,0,11.2-2,15.2-5.9c4-3.9,6.1-9.1,6.1-15.2c0-6.1-2-11.3-6-15.3c-4-4-9.2-6-15.3-6h-20
				c10-8.4,17.4-15.4,22.3-21.1c12.6-14.6,19-30,19-45.8c0-17.8-6.2-33-18.4-45.1C656.9,296.2,641.7,290.1,623.9,290.1L623.9,290.1z
				"/>
		</g>
		<g id="Layer_2">
		</g>
	</g>
</g>
<g id="Layer_4_copy">
	<g id="Layer_3_copy">
		<g id="XMLID_345_" class="st0">
			<path id="XMLID_231_" class="st2" d="M433.4,354.7"/>
		</g>
		<g id="XMLID_342_" class="st0">
			<path id="XMLID_228_" class="st2" d="M470.3,391.5"/>
		</g>
		<g id="XMLID_339_" class="st0">
			<path id="XMLID_226_" class="st2" d="M471,354.5"/>
		</g>
		<g id="XMLID_336_" class="st0">
			<path id="XMLID_224_" class="st2" d="M433,354.5"/>
		</g>
		<g id="XMLID_333_" class="st0">
			<path id="XMLID_205_" class="st2" d="M470.5,355"/>
		</g>
		<g id="XMLID_300_" class="st0">
			<path id="XMLID_157_" class="st1" d="M960,309"/>
			<path id="XMLID_144_" class="st4" d="M960,309"/>
		</g>
	</g>
	<g id="Layer_1_copy">
		<path id="XMLID_219_" class="st15" d="M660.2,491l155.9,0.2l0,0c13.9-0.5,27.2-3.4,39.4-8.4c13.8-5.7,26.4-14.1,37.5-25.2
			c22.3-22.3,33.7-49.8,33.7-81.7c0-2.1,0-4.1-0.1-6.2c-0.2-4.8,3.6-8.7,8.3-8.7H967l0-1.3l0-99.7H841.3c-6.2,0-11.3-5-11.3-11.3
			v-38.9c0-23-8.4-43.5-24.4-59.3c-15.9-15.8-36.4-24.1-59.2-24.1c-0.1,0-0.3,0-0.4,0V126H467c-3.4,0-6.4-2.2-7.4-5.4
			c-4-12.2-17.4-40.6-56.5-40.6c-49.8,0,0,0,0,0H131l0,0c-12.5,0.7-24,6.1-32.6,14.7c-9.3,9.3-14.4,22-14.4,35.7v130.6
			c0,13.7,5.1,26.4,14.5,35.7c8.6,8.6,20,14.2,32.5,14.9l0,0l48.4,0.8c2.9,0,5.5,1.7,6.9,4.3c3.8,7.3,8.1,13.8,14.1,19.8
			c15.4,15.4,39.1,24.5,63.4,24.5h129.8h1.1h105.9h0.9h11.8c5.4,0,9.7,4.4,9.7,9.7V437l0,0c-0.2,1.9,0.2,3.9,0.2,5.9
			c0,15.4,6.4,28.8,18.1,37.7c9.1,6.9,20.6,10.4,34.2,10.4H660.2 M801.5,290.9c-0.4-0.3-0.8-0.7-1.2-1.1c-0.4-0.4-0.8-0.8-1.1-1.2
			c0.4,0.4,0.7,0.8,1.1,1.2C800.7,290.2,801.1,290.6,801.5,290.9z M231.5,120.5c2.2,2.6,3.5,5.9,3.5,9.8v146.6c0,1.8,0.2,3.4,0.6,5
			c-0.4-1.6-0.6-3.2-0.6-5V130.4C235,126.4,233.7,123.1,231.5,120.5z M217.6,117.6c-0.8,0.5-1.6,1.1-2.3,1.8
			C216,118.7,216.8,118.1,217.6,117.6c2.4-1.6,5.4-2.3,8.8-2.3s6.4,0.8,8.8,2.3c0.8,0.5,1.6,1.1,2.3,1.8c-0.7-0.7-1.5-1.3-2.3-1.8
			c-2.5-1.6-5.5-2.3-8.8-2.3S220,116.1,217.6,117.6z M448.9,241.6c-0.8-1.6-1.9-3-3.2-4.3c-0.4-0.4-0.9-0.8-1.4-1.2
			c0.5,0.4,0.9,0.8,1.4,1.2C447,238.6,448.1,240.1,448.9,241.6z M723.1,201.2c-1.4,2.5-2.1,5.4-2.1,8.6v51.1c0,3.4-0.7,6.3-2.3,8.7
			c1.6-2.4,2.3-5.3,2.3-8.7v-51.1C721,206.6,721.7,203.8,723.1,201.2z M710,177.5L710,177.5c0.6-0.7,1.3-1.4,2-2.1l0,0
			C711.3,176.1,710.6,176.8,710,177.5z M716,171.8c0.9-0.7,1.9-1.5,2.8-2.1C717.9,170.3,716.9,171,716,171.8z M767.9,302L767.9,302
			h-87.8c0,0,0,0,0,0H767.9z M764.5,208c0.1,0.6,0.1,1.2,0.1,1.8l0,0.4l0-0.4C764.6,209.2,764.6,208.6,764.5,208z M775.4,411.4
			c1.2,1.2,2.5,2.3,3.7,3.4C777.8,413.7,776.6,412.6,775.4,411.4c-9.7-9.7-14.5-21.6-14.5-35.7c0-3.6,0.3-7,0.9-10.2
			c0.5-2.4,1.1-4.8,1.9-7.1c0.4-1.3,1-2.5,1.5-3.8c-0.6,1.2-1.1,2.5-1.5,3.8c-0.8,2.3-1.4,4.6-1.9,7.1c-0.6,3.3-0.9,6.7-0.9,10.2
			C760.9,389.8,765.7,401.7,775.4,411.4z M798.5,424.5c-2.4-0.6-4.7-1.3-6.9-2.2c-3.7-1.5-7.2-3.5-10.5-6c3.3,2.5,6.8,4.4,10.5,6
			C793.8,423.2,796.1,423.9,798.5,424.5z M771.9,343.8c1.1-1.3,2.2-2.5,3.4-3.7C774.1,341.3,772.9,342.5,771.9,343.8z M765.8,353.2
			c0.6-1.2,1.2-2.4,1.9-3.5C767,350.9,766.4,352,765.8,353.2z M675.5,352.6c0,1,0,1.9-0.1,2.9C675.5,354.5,675.5,353.6,675.5,352.6
			L675.5,352.6z M650,432h-26.7h0H650L650,432z M594.2,339.4c-0.2,0.3-0.4,0.7-0.6,1C593.8,340.1,594,339.8,594.2,339.4z
			 M639.9,336.6c-0.5-0.7-1.1-1.4-1.7-2.1C638.7,335.2,639.3,335.9,639.9,336.6c1.1,1.4,2,2.9,2.7,4.4
			C641.9,339.5,640.9,338,639.9,336.6z M638.4,370.1c-0.7,0.9-1.3,1.9-2.1,2.8C637.1,372,637.7,371,638.4,370.1z M548,302h25.6
			c0,0,0,0,0,0H548L548,302z M584.3,365.4c0.8-0.5,1.5-1.1,2.2-1.8C585.8,364.3,585.1,364.9,584.3,365.4c-2.4,1.6-5.4,2.4-8.7,2.4h0
			C578.9,367.8,581.9,367,584.3,365.4z M587.6,362.4c-0.3,0.4-0.6,0.8-1,1.1h0C587,363.2,587.3,362.8,587.6,362.4z M623.6,386.3
			c-1.5,1.3-3,2.7-4.6,4.1C620.6,389,622.1,387.6,623.6,386.3z M658,394.1c-0.4,0.5-0.8,1-1.3,1.5
			C657.1,395.1,657.6,394.6,658,394.1c1.5-1.7,2.8-3.4,4.1-5.1C660.8,390.8,659.4,392.5,658,394.1z M674.4,363.3
			c-0.2,1.1-0.5,2.1-0.8,3.2C673.9,365.4,674.2,364.3,674.4,363.3z M674.5,341.3c0.2,1.3,0.5,2.7,0.6,4
			C675,344,674.8,342.7,674.5,341.3z M747.5,326c-2.6,3.1-4.8,6.4-6.8,9.8C742.7,332.4,745,329.1,747.5,326L747.5,326z M735.9,345.9
			c-1.2,3.1-2.2,6.2-3,9.5C733.7,352.1,734.7,349,735.9,345.9z M567.6,365.9c-0.6-0.3-1.1-0.7-1.6-1.1
			C566.5,365.2,567.1,365.6,567.6,365.9z M564.6,363.6c-1.2-1.3-2.2-2.7-2.9-4.3C562.5,360.9,563.4,362.4,564.6,363.6L564.6,363.6z
			 M574.4,423.2c4.6-3.1,9.5-6.5,14.7-10.2C584,416.7,579.1,420.1,574.4,423.2c-1.6,1-3.1,2.1-4.5,3
			C571.4,425.3,572.9,424.3,574.4,423.2z M756.5,435.4c1.1,1,2.3,2.1,3.4,3c4.1,3.4,8.5,6.3,13,8.8c2.3,1.2,4.6,2.3,7,3.3
			c3.6,1.5,7.3,2.6,11.1,3.6c-3.8-0.9-7.5-2.1-11.1-3.6c-2.4-1-4.7-2.1-7-3.3c-4.5-2.4-8.9-5.4-13-8.8
			C758.7,437.5,757.6,436.5,756.5,435.4C756.5,435.4,756.5,435.4,756.5,435.4z M800.9,425c2.4,0.5,5,0.7,7.5,0.9
			C805.9,425.7,803.3,425.4,800.9,425z M774.7,170.1c0.5,0.4,1.1,0.8,1.6,1.2C775.8,170.9,775.2,170.5,774.7,170.1z M759.2,197.2
			c0,0-0.1-0.1-0.1-0.1h0C759.2,197.1,759.2,197.2,759.2,197.2z M737.7,193.8c2.6-1.3,5.5-2,8.7-2l0,0
			C743.2,191.8,740.3,192.5,737.7,193.8z M461.1,161.4c2.3,0,4.3,0.3,6.1,1s3.5,1.7,4.9,3.1c-1.4-1.4-3.1-2.4-4.9-3.1
			S463.3,161.4,461.1,161.4L461.1,161.4z M364.1,147.8c-1.2-2.5-0.8-4.9-2.4-7.2c1.6,2.3,0.3,4.7,1.5,7.2c3.6,7.5,2.8,15.8,2.8,24.9
			v104.2c0,2.6,0.4,4.9,1.2,7c-0.8-2.1-1.2-4.5-1.2-7V172.7C366,163.6,367.7,155.3,364.1,147.8z M345.4,302h-81.6
			c-1.9,0-4.2-3.7-6.6-4.2c-0.8-0.2-1.6-2.1-2.3-2.3s-1.5-1.3-2.3-1.6c0.7,0.3,1.5,0.1,2.3,0.3c0.8,0.2,1.6,3.7,2.3,3.8
			c2.4,0.5,4.7,4,6.6,4H345.4L345.4,302z M299.8,215c0-0.6,0-1.1,0.1-1.6C299.8,213.9,299.8,214.4,299.8,215L299.8,215z
			 M342.2,172.7c0,1.4-0.1,2.8-0.3,4.1C342.1,175.5,342.2,174.1,342.2,172.7L342.2,172.7z M301.4,207.6c-0.4,0.9-0.8,1.8-1,2.7
			C300.7,209.3,301,208.4,301.4,207.6c0.7-1.3,1.5-2.4,2.5-3.5c2.8-2.8,6.4-4.2,10.9-4.2c2.2,0,4.4-0.2,6.4-0.7
			c-2,0.5-4.2,0.7-6.4,0.7c-4.5,0-8.1,1.4-10.9,4.2C302.9,205.1,302.1,206.3,301.4,207.6z M342,223.6L342,223.6
			c-7,3.9-15.2,6.2-23.6,6.6C326.8,229.7,335,227.5,342,223.6z M322,199.1c1-0.3,2-0.6,2.9-0.9C323.9,198.5,323,198.8,322,199.1z
			 M325.9,197.7c0.4-0.2,0.8-0.4,1.2-0.6C326.7,197.3,326.3,197.5,325.9,197.7z M307,146.8c-1.2,0.4-2.5,0.8-3.6,1.4
			C304.5,147.6,305.7,147.1,307,146.8c1.7-0.5,3.4-0.8,5.2-1C310.4,146,308.6,146.3,307,146.8z M299.2,150.6
			c0.6-0.4,1.2-0.9,1.9-1.3C300.4,149.8,299.8,150.2,299.2,150.6z M287.4,121.7c-2.5,1.3-4.8,2.8-7.1,4.5c-2.3,1.7-4.4,3.6-6.5,5.6
			c-2.1,2.1-4,4.2-5.7,6.5c1.7-2.3,3.6-4.4,5.7-6.5c2.1-2.1,4.2-3.9,6.5-5.6C282.6,124.5,285,123,287.4,121.7
			c2.2-1.1,4.4-2.1,6.7-2.9C291.8,119.6,289.6,120.6,287.4,121.7z M281,172.7c0-7.5,6.1-13.9,11.3-19.1c0.7-0.7,3.1-1.3,3.8-1.8
			c-0.7,0.6-4,1.2-4.6,1.8C286.2,158.8,281,165.2,281,172.7v88.3c0,2.1-0.3,3.9-1,5.6c0.6-1.7,1-3.6,1-5.6V172.7z M286.7,267.5
			c-0.3,0.7-0.7,1.5-1.2,2.1c-0.5,0.8-1.2,1.5-1.9,2.2l0,0c0.7-0.7,1.3-1.4,1.9-2.2C286,268.9,286.3,268.2,286.7,267.5z
			 M342.5,121.7c-8.2-4.3-17.4-6.5-27.5-6.5c-6.8,0-13.3,1-19.3,3c6-2,12.4-3,19.3-3C325.1,115.3,334.3,117.4,342.5,121.7
			c2.5,1.3,4.8,2.8,7.1,4.5c2.3,1.7,4.4,3.6,6.5,5.6c2.1,2.1,4,4.2,5.7,6.5c-1.7-2.3-3.6-4.4-5.7-6.5c-2.1-2.1-4.3-3.9-6.5-5.6
			C347.3,124.5,345,123,342.5,121.7z M389.3,294.7c-0.6-0.1-1.2-0.2-1.8-0.3C388.1,294.5,388.7,294.6,389.3,294.7z M393.6,302h1.1
			h59.6l0,0h-59.6H393.6c-1.2,0-2.6-0.1-4-0.3C391,301.9,392.3,302,393.6,302z M440.6,233.7c0.8,0.4,1.6,0.8,2.3,1.3
			C442.1,234.6,441.4,234.1,440.6,233.7z M438.8,191.2c0.2-0.1,0.3-0.2,0.5-0.3C439.1,191,438.9,191.1,438.8,191.2z M437.2,192.3
			c0.2-0.1,0.4-0.2,0.6-0.4C437.6,192.1,437.4,192.2,437.2,192.3z M432.4,194.3c0.3-0.1,0.5-0.1,0.7-0.2
			C432.9,194.2,432.7,194.2,432.4,194.3z M434.1,193.8c0.2-0.1,0.5-0.2,0.7-0.3C434.6,193.6,434.3,193.7,434.1,193.8z M435.7,193.1
			c0.2-0.1,0.4-0.2,0.7-0.3C436.1,192.9,435.9,193,435.7,193.1z M429,194.7c0.3,0,0.6,0,0.8,0C429.5,194.7,429.3,194.7,429,194.7z
			 M430.7,194.6c0.3,0,0.5-0.1,0.8-0.1C431.3,194.5,431,194.5,430.7,194.6z M411,260.9c0,1.6-0.2,3.1-0.5,4.4
			C410.8,264,411,262.5,411,260.9V232l0,0V260.9z M416.4,268.4c0.4-0.7,0.7-1.5,0.9-2.3C417,266.9,416.8,267.7,416.4,268.4z
			 M413.8,271.9L413.8,271.9c0.7-0.7,1.3-1.4,1.9-2.2C415.1,270.4,414.5,271.2,413.8,271.9z M387.1,294.2c-0.7-0.1-1.3-0.3-1.9-0.5
			C385.8,293.9,386.4,294.1,387.1,294.2z M213.5,121.7c-0.6,0.9-1.1,2-1.5,3C212.3,123.6,212.8,122.6,213.5,121.7z M145,119.4
			c0.4,0.3,0.7,0.7,1,1.1c1.5,1.9-1.1,4.1-0.7,6.6c0.2,1-3.3,2.1-3.3,3.2V174l0,0v-43.6c0-1.1,3.4-2.2,3.3-3.2
			c-0.4-2.5,0.5-4.8-1.1-6.6c-0.3-0.4,0.2-0.7-0.1-1.1c-2.9-2.8-6-4.2-10.5-4.2c-3.2,0-5.7,0.7-8,2.1c2.3-1.4,5.1-2.1,8.3-2.1
			C138.4,115.3,142.1,116.7,145,119.4z M145,271.8C145,271.8,145,271.8,145,271.8L145,271.8C145,271.8,145,271.8,145,271.8z
			 M124.1,118.6c0.1-0.1,0.3-0.2,0.4-0.3C124.4,118.3,124.3,118.4,124.1,118.6z M142,260.9c0,1.6-0.2,3.1-0.5,4.5
			C141.8,264,142,262.5,142,260.9V204l0,0V260.9z M212,287.2c0-0.2-0.1-0.5-0.1-0.7C211.9,286.7,211.9,287,212,287.2z M566.7,326
			c-1,2-1.9,4-2.7,6.1c-0.8,2.1-1.4,4.3-2,6.5c0.5-2.2,1.2-4.4,2-6.5S565.7,328,566.7,326L566.7,326z M830.6,422.3
			c-1.5,0.6-3,1.1-4.6,1.6C827.6,423.4,829.1,422.9,830.6,422.3c1.5-0.6,2.9-1.3,4.4-2c4.3-2.3,8.2-5.2,11.8-8.8s6.6-7.6,8.8-11.8
			c1.5-2.8,2.7-5.8,3.6-8.9c-0.9,3.1-2.1,6.1-3.6,8.9c-2.3,4.2-5.2,8.2-8.8,11.8s-7.6,6.6-11.8,8.8
			C833.5,421,832.1,421.7,830.6,422.3z M789.3,284c-0.9-2.1-1.3-4.5-1.3-7v-67.1c0-8.9-2-16.9-6-23.9c4,7.1,6,15,6,23.9v67.1
			C788,279.5,788.5,281.8,789.3,284z M784.1,178.7c0.2,0.2,0.3,0.4,0.5,0.6C784.4,179.2,784.2,179,784.1,178.7z M786.3,181.7
			c0.5,0.8,1.1,1.5,1.6,2.3C787.4,183.2,786.9,182.4,786.3,181.7z M756.3,162.3c-3.1-0.6-6.4-0.9-9.8-0.9l0,0
			C749.8,161.4,753.1,161.7,756.3,162.3z M442.5,187.5c0.9-1.2,1.6-2.4,2.2-3.7C444.1,185.1,443.4,186.4,442.5,187.5z M411,130.8
			v63.7l16.7,7.5c0,0,0,0,0,0c0,0,0,0,0,0l-16.7-7.5V130.8c0-1.1-0.1-2.2-0.3-3.2C410.9,128.6,411,129.7,411,130.8z M414.8,120.9
			c0.6,0.8,1.2,1.6,1.6,2.4C415.9,122.5,415.4,121.6,414.8,120.9c-0.3-0.4-0.6-0.8-1-1.1c-0.8-0.8-1.8-1.5-2.8-2.1
			c1,0.6,1.9,1.3,2.8,2.1C414.1,120.1,414.5,120.5,414.8,120.9z M559.9,449.8c0.5,0.8,1,1.4,1.6,2.1
			C560.9,451.2,560.4,450.5,559.9,449.8z M849.2,447.2c-3.4,1.8-6.9,3.4-10.6,4.7C842.3,450.5,845.8,449,849.2,447.2
			c4.5-2.4,8.9-5.4,13-8.8C858.1,441.8,853.8,444.7,849.2,447.2z M874.6,326c7.8,9.6,13,20.5,15.4,32.6c0.4,2.2,0.8,4.4,1.1,6.7
			c-0.3-2.3-0.6-4.5-1.1-6.7C887.5,346.5,882.4,335.6,874.6,326L874.6,326z M890.3,391.5c-0.3,1.5-0.6,3-0.9,4.5
			C889.7,394.5,890,393,890.3,391.5z M891.6,380.1c0.1-1.4,0.1-2.8,0.1-4.2v0C891.7,377.3,891.6,378.7,891.6,380.1z M947.2,319.3
			l-0.2-1.7V302H815.4c-1.3,0-2.7-3.5-4.1-3.5c-2.1-0.2-4.1-2.5-6-3.3c1.8,0.9,3.8,4,6,4.2c1.4,0,2.7,2.6,4.1,2.6H947v15.7
			C947,318,947.2,319.3,947.2,319.3z"/>
		<g id="XMLID_192_">
			<linearGradient id="XMLID_78_" gradientUnits="userSpaceOnUse" x1="702.7715" y1="421.9051" x2="702.7715" y2="465.0545">
				<stop  offset="0" style="stop-color:#E0AE12"/>
				<stop  offset="0.8587" style="stop-color:#E0AE12"/>
				<stop  offset="1" style="stop-color:#E0AE12"/>
			</linearGradient>
			<path id="XMLID_169_" class="st16" d="M702.8,457.8c-6.1,0-11.2-2.1-15.4-6.3s-6.3-9.4-6.3-15.4c0-5.9,2.2-11,6.4-15.2
				c4.2-4.2,9.4-6.3,15.3-6.3c5.9,0,11,2.1,15.3,6.3c4.3,4.2,6.4,9.3,6.4,15.2c0,6.1-2.1,11.2-6.3,15.4
				C714,455.7,708.8,457.8,702.8,457.8z"/>
			<path id="XMLID_164_" class="st8" d="M702.8,417.6c5.1,0,9.5,1.8,13.2,5.4c3.7,3.6,5.5,8,5.5,13.1c0,5.3-1.8,9.7-5.4,13.3
				s-8,5.4-13.3,5.4c-5.3,0-9.7-1.8-13.3-5.4c-3.6-3.6-5.4-8-5.4-13.3c0-5.1,1.8-9.5,5.5-13.1C693.3,419.4,697.7,417.6,702.8,417.6
				 M702.8,411.6c-6.7,0-12.5,2.4-17.4,7.1c-4.9,4.8-7.3,10.6-7.3,17.3c0,6.9,2.4,12.8,7.2,17.5c4.7,4.8,10.6,7.2,17.5,7.2
				c6.9,0,12.8-2.4,17.5-7.2c4.8-4.8,7.2-10.6,7.2-17.5c0-6.8-2.5-12.6-7.3-17.3C715.3,414,709.5,411.6,702.8,411.6L702.8,411.6z"/>
		</g>
		<g id="XMLID_132_">
			<g id="XMLID_532_">
				<g id="XMLID_548_">
					<linearGradient id="XMLID_79_" gradientUnits="userSpaceOnUse" x1="528.6478" y1="157.9596" x2="525.0742" y2="279.4627">
						<stop  offset="0" style="stop-color:#246596"/>
						<stop  offset="0.8587" style="stop-color:#246596"/>
						<stop  offset="1" style="stop-color:#246596"/>
					</linearGradient>
					<path id="XMLID_552_" class="st17" d="M510.6,279c-5.2,0-9.4-1.6-12.8-5c-3.2-3.2-4.8-7.5-4.8-13v-51.1
						c0-14.6,5-26.9,14.7-36.6c10.1-10,22-14.8,36.4-14.8c5.2,0,9.5,1.7,12.9,5.2c3.4,3.4,5.2,7.8,5.2,12.9c0,7.6-3.2,17-18.3,18.3
						c-4.4,0.4-8,1.9-10.9,4.7c-2.8,2.6-4.1,6-4.1,10.3v51.1c0,5.3-1.8,9.7-5.2,13.1C520.3,277.3,515.9,279,510.6,279z"/>
					<path id="XMLID_549_" class="st10" d="M544.1,161.4c4.4,0,8,1.4,10.8,4.3c2.8,2.9,4.3,6.5,4.3,10.8c0,9.3-5.2,14.4-15.5,15.3
						c-5.1,0.5-9.3,2.3-12.7,5.5c-3.4,3.2-5,7.4-5,12.5v51.1c0,4.5-1.5,8.1-4.3,10.9c-2.9,2.8-6.6,4.2-11.1,4.2s-7.9-1.4-10.7-4.2
						c-2.8-2.8-3.9-6.4-3.9-10.9v-51.1c0-13.7,4.4-25.1,13.8-34.4C519.2,166.1,530.5,161.4,544.1,161.4 M544.1,155.4
						c-15.1,0-28,5.3-38.5,15.7c-10.4,10.3-15.6,23.3-15.6,38.7v51.1c0,6.3,1.9,11.4,5.7,15.2c4,4,8.9,5.9,14.9,5.9
						c6,0,11.3-2,15.3-5.9c4-3.9,6.1-9.2,6.1-15.2v-51.1c0-3.5,1-6.1,3.2-8.2c2.4-2.3,5.4-3.5,9.1-3.9c13.3-1.2,21-8.9,21-21.3
						c0-6-2-11-6-15C555.2,157.5,550.1,155.4,544.1,155.4L544.1,155.4z"/>
				</g>
				<g id="XMLID_539_">
					<linearGradient id="XMLID_83_" gradientUnits="userSpaceOnUse" x1="626.6862" y1="158.4494" x2="623.1271" y2="279.4587">
						<stop  offset="0" style="stop-color:#246596"/>
						<stop  offset="0.8587" style="stop-color:#246596"/>
						<stop  offset="1" style="stop-color:#246596"/>
					</linearGradient>
					<path id="XMLID_545_" class="st18" d="M624.8,279.5c-17,0-31.4-5.9-43-17.5c-11.6-11.6-17.4-26.1-17.4-43.1
						c0-17,5.9-31.4,17.4-43c11.6-11.6,26-17.4,43-17.4c17,0,31.5,5.9,43.1,17.4c11.6,11.6,17.5,26,17.5,43c0,17-5.9,31.5-17.5,43.1
						C656.3,273.6,641.8,279.5,624.8,279.5z M624.8,194.8c-6.7,0-12.3,2.3-17,7c-4.7,4.7-7,10.3-7,17c0,6.8,2.3,12.4,7,17.1
						c4.7,4.8,10.3,7.1,17,7.1c6.7,0,12.3-2.3,17.1-7.1c4.8-4.8,7.1-10.4,7.1-17.1c0-6.7-2.3-12.3-7.1-17
						C637.2,197.1,631.5,194.8,624.8,194.8z"/>
					<path id="XMLID_540_" class="st10" d="M624.8,161.4c16.2,0,29.9,5.5,41,16.5c11.1,11,16.7,24.7,16.7,40.9s-5.6,29.9-16.7,41
						c-11.1,11.1-24.8,16.7-41,16.7c-16.2,0-29.8-5.6-40.9-16.7c-11-11.1-16.5-24.8-16.5-41s5.5-29.8,16.5-40.9
						C595,166.9,608.6,161.4,624.8,161.4 M624.8,246.1c7.5,0,13.9-2.7,19.3-8c5.3-5.3,8-11.7,8-19.3c0-7.5-2.7-13.9-8-19.1
						c-5.3-5.3-11.7-7.9-19.3-7.9c-7.5,0-13.9,2.6-19.1,7.9c-5.3,5.3-7.9,11.6-7.9,19.1c0,7.5,2.6,13.9,7.9,19.3
						C610.9,243.4,617.3,246.1,624.8,246.1 M624.8,155.4c-17.8,0-33,6.2-45.1,18.3c-12.1,12.1-18.3,27.3-18.3,45.1
						c0,17.8,6.2,33,18.3,45.2c12.1,12.2,27.3,18.4,45.1,18.4c17.8,0,33-6.2,45.2-18.4c12.2-12.2,18.4-27.4,18.4-45.2
						c0-17.8-6.2-33-18.4-45.1C657.8,161.6,642.6,155.4,624.8,155.4L624.8,155.4z M624.8,240.1c-5.9,0-10.8-2-14.9-6.2
						c-4.1-4.2-6.2-9.1-6.2-15c0-5.9,2-10.8,6.1-14.9c4.1-4.1,9-6.1,14.9-6.1c5.9,0,10.8,2,15,6.2c4.2,4.1,6.2,9,6.2,14.9
						c0,5.9-2,10.8-6.2,15C635.6,238,630.7,240.1,624.8,240.1L624.8,240.1z"/>
				</g>
				<g id="XMLID_533_">
					<linearGradient id="XMLID_85_" gradientUnits="userSpaceOnUse" x1="535.0555" y1="413.1325" x2="531.6289" y2="529.6356">
						<stop  offset="0" style="stop-color:#246596"/>
						<stop  offset="0.8587" style="stop-color:#246596"/>
						<stop  offset="1" style="stop-color:#246596"/>
					</linearGradient>
					<path id="XMLID_538_" class="st19" d="M262.8,329c-15.5,0-31.5-6-40.8-15.2c-10-10-15-22.4-15-36.9V207h-56v53.9
						c0,5.5-1.6,9.8-5,13.1c-3.5,3.4-7.7,5-12.9,5c-5.3,0-9.7-1.7-13.1-5c-3.4-3.4-5.1-7.8-5.1-13V130.4c0-5.3,1.7-9.7,5-13
						c3.3-3.3,7.7-5,13-5c5.2,0,9.6,1.7,13,5c3.3,3.2,4.9,7.5,4.9,13.1V171h56v-40.6c0-5.2,1.7-9.6,5.2-13c3.3-3.3,7.9-5,13.2-5
						c5.3,0,9.9,1.7,13.2,5c3.5,3.5,5.4,8,5.4,13.1v146.6c0,4.5,1.3,7.9,4.2,10.7c2.6,2.6,9.6,4.3,14.6,4.3h77.3
						c-1.4-4.6-2.1-9.8-2.1-15.1v-48.5c-7.3,3.2-15.5,4.9-24.2,4.9c-5.3,0-9.7-1.7-13-5.2c-3.3-3.4-5-7.8-5-13.1c0-5.3,1.7-9.7,5-13
						c3.3-3.3,7.7-5,13-5c6.7,0,12.3-2.3,17.1-7.1c4.8-4.8,7.1-10.4,7.1-17.1c0-6.7-2.3-12.3-7.1-17c-4.8-4.7-10.4-7-17.1-7
						c-6.7,0-12.3,2.3-17,7c-4.7,4.7-6.9,10.2-6.9,17v88.3c0,5.2-1.8,9.6-5.3,13.1c-3.4,3.3-8,5-13.2,5c-5.3,0-9.9-1.7-13.2-5
						c-3.5-3.5-5.3-8-5.3-13v-88.3c0-16.8,6-31.2,17.7-43c11.6-11.6,26.1-17.4,43.3-17.4c17,0,31.6,5.9,43.2,17.4
						c11.8,11.7,17.8,26.2,17.8,43v104.2c0,4.5,1.3,7.9,4.1,10.8c2.7,2.8,9,4.3,13.5,4.3H449c-1.3-4.4-2-9.6-2-15.1v-26.6
						c0-4.3-1.5-8-4.4-10.9c-3-3-6.7-4.5-10.9-4.5H420v25.9c0,5.4-1.7,9.8-5.1,13.1c-3.4,3.3-7.8,5-13,5c-5.3,0-9.6-1.7-13-5
						c-3.2-3.2-4.9-7.6-4.9-13V130.8c0-5.5,1.6-9.8,4.9-13.1c3.4-3.5,7.6-5.2,12.9-5.2c5.3,0,9.7,1.7,13.1,5.2
						c3.4,3.4,5.1,7.8,5.1,13.2v60.8l6.8,0.2c0.2,0,0.4,0,0.5,0c3.9,0,7.3-1.4,10.2-4.2c3-3,4.5-6.4,4.5-10.6
						c0-12,6.4-18.5,18.1-18.5c5.3,0,9.7,1.7,13.1,5c3.4,3.3,5.1,7.7,5.1,13.1c0,13.2-4.5,24.9-13.5,34.6
						c12.1,10,18.2,23.2,18.2,39.3v26.6c0,4.1,1.5,7.7,4.6,10.7c2.7,2.7,7.2,4.3,12,4.3h263.1c-1.1-4.2-1.7-9.3-1.7-15.1v-10.6
						l-0.4-56.5c0-4.1-1.5-7.5-4.6-10.6c-3-3-6.4-4.4-10.6-4.4c-4.4,0-7.9,1.4-10.9,4.3c-3,3-4.5,6.5-4.5,10.7v51.1
						c0,5.4-1.7,9.8-5.1,13.1c-3.5,3.4-7.7,5-13,5c-5.3,0-9.6-1.7-13-5c-3.3-3.3-5-7.7-5-13v-51.1c0-14.5,5-26.8,14.9-36.6
						c9.9-9.8,22.2-14.8,36.6-14.8c14.4,0,26.7,5,36.7,14.8c9.9,9.8,14.9,22.1,14.9,36.6v67.1c0,4.2,1.5,7.7,4.5,10.7
						c2.9,2.9,6.5,4.3,10.9,4.3H963c1.7,0,3,1.3,3,3v31c0,1.7-1.3,3-3,3H262.8z"/>
					<path id="XMLID_534_" class="st10" d="M314,115.3c16.2,0,30,5.5,41.1,16.5c11.1,11,16.9,24.7,16.9,40.9v104.2
						c0,5.1,1.5,9.3,4.9,12.9c3.5,3.5,10.5,5.2,15.6,5.2h1.1h59.6c-2.2-5-3.2-11.5-3.2-18.1v-26.6c0-5.1-1.8-9.6-5.3-13
						c-3.5-3.5-7.9-5.4-13-5.4H417v28.9c0,4.5-1.3,8.1-4.2,10.9c-2.9,2.8-6.4,4.2-10.9,4.2c-4.5,0-8.1-1.4-10.8-4.2
						c-2.8-2.8-4-6.4-4-10.9V130.8c0-4.5,1.2-8.2,4-11c2.8-2.8,6.3-4.3,10.8-4.3c4.5,0,8.2,1.4,11,4.3c2.8,2.9,4.2,6.5,4.2,11v63.7
						l9.7,0.2c0.2,0,0.4,0,0.6,0c4.7,0,8.8-1.7,12.3-5.1c3.6-3.5,5.4-7.8,5.4-12.7c0-10.4,5-15.5,15.1-15.5c4.5,0,8.2,1.4,11,4.2
						c2.8,2.8,4.2,6.4,4.2,10.9c0,13.7-5,25.3-14.9,34.9c13.2,9.8,19.6,22.7,19.6,39v26.6c0,5.1,1.9,9.3,5.5,12.9
						c3.5,3.5,9,5.2,14.1,5.2h0.9h266.4c-2.1-5-2.9-11.5-2.9-18.1v-10.6l-0.4-56.5c0-5-1.9-9.2-5.5-12.7c-3.5-3.5-7.8-5.3-12.7-5.3
						c-5.1,0-9.5,1.7-13,5.2c-3.5,3.5-5.4,7.7-5.4,12.8v51.1c0,4.5-1.3,8.1-4.1,10.9c-2.9,2.8-6.4,4.2-10.9,4.2
						c-4.5,0-8.1-1.4-10.9-4.2c-2.8-2.8-4.1-6.4-4.1-10.9v-51.1c0-13.7,4.6-25.1,14-34.4c9.4-9.3,20.8-14,34.5-14
						c13.7,0,25.2,4.7,34.5,14c9.4,9.3,14,20.8,14,34.4v67.1c0,5.1,1.8,9.3,5.3,12.9c3.5,3.5,7.9,5.2,13,5.2h0.9H963v22.7v8.3H813.2
						h-0.9H500.5h-0.9H393.7h-1.1H262.8c-13.7,0-29.3-4.9-38.6-14.3c-9.4-9.4-14.2-21.1-14.2-34.8V204h-62v56.9
						c0,4.5-1.2,8.1-4.1,10.9c-2.9,2.8-6.3,4.2-10.8,4.2c-4.5,0-8.2-1.4-10.9-4.2c-2.8-2.8-4.2-6.4-4.2-10.9V130.4
						c0-4.5,1.4-8.1,4.1-10.9c2.8-2.8,6.4-4.2,10.9-4.2c4.5,0,8.1,1.4,10.9,4.2c2.8,2.8,4,6.4,4,10.9V174h62v-43.6
						c0-4.5,1.5-8.1,4.3-10.9c2.8-2.8,6.6-4.2,11.1-4.2c4.5,0,8.3,1.4,11.1,4.2c2.8,2.8,4.5,6.4,4.5,10.9v146.6
						c0,5.1,1.5,9.3,5.1,12.9c3.5,3.5,11.6,5.2,16.7,5.2h81.6c-2.2-5-3.4-11.5-3.4-18.1v-53.4c-8,4.5-17.6,6.8-27.2,6.8
						c-4.5,0-8.1-1.4-10.8-4.3c-2.8-2.8-4.2-6.5-4.2-11c0-4.5,1.4-8.1,4.2-10.9c2.8-2.8,6.4-4.2,10.9-4.2c7.5,0,13.9-2.7,19.3-8
						c5.3-5.3,8-11.7,8-19.3c0-7.5-2.7-13.9-8-19.1c-5.3-5.3-11.7-7.9-19.2-7.9c-7.5,0-13.9,2.6-19.1,7.9
						c-5.3,5.3-7.8,11.6-7.8,19.1v88.3c0,4.5-1.5,8.1-4.4,10.9c-2.9,2.8-6.6,4.2-11.2,4.2c-4.5,0-8.3-1.4-11-4.2
						c-2.8-2.8-4.4-6.4-4.4-10.9v-88.3c0-16.2,5.8-29.8,16.8-40.9C283.9,120.8,297.8,115.3,314,115.3 M314,109.3
						c-18,0-33.3,6.2-45.4,18.3c-12.3,12.3-18.6,27.5-18.6,45.1v88.3c0,5.9,2.1,11.1,6.2,15.2c3.9,3.9,9.2,5.9,15.3,5.9
						c6.1,0,11.4-2,15.3-5.9c4.1-4,6.2-9.2,6.2-15.2v-42.8c0.6,4.7,2.5,8.8,5.7,12.1c3.9,4,9,6.1,15.1,6.1c7.4,0,14.6-1.2,21.2-3.5
						v44.1c0,4.1,0.4,8.2,1.3,12.1h-73.5c-4.6,0-10.7-1.7-12.5-3.5c-2.3-2.3-3.3-5-3.3-8.6V130.4c0-5.9-2.2-11.2-6.3-15.2
						c-3.9-3.8-9.2-5.9-15.3-5.9c-6.1,0-11.4,2-15.3,5.9c-4,4-6.1,9.2-6.1,15.2V168h-50v-37.6c0-6.3-2-11.4-5.9-15.2
						c-4-3.9-9.1-5.9-15.1-5.9c-6.1,0-11.2,2-15.1,5.9c-3.9,3.9-5.9,9-5.9,15.2v130.6c0,6.1,2,11.2,6,15.2c3.9,3.9,9,5.9,15.2,5.9
						c5.9,0,11-2,15-5.9c3.9-3.8,5.9-8.9,5.9-15.2V210h50v66.9c0,15.3,5.4,28.5,15.9,39c9.9,9.9,26.3,16,42.9,16h129.8h1.1h105.9
						h0.9h311.8h0.9H963c3.3,0,6-2.7,6-6v-8.3V295c0-3.3-2.7-6-6-6H813.2h-0.9c-3.6,0-6.4-1.1-8.7-3.5c-2.4-2.4-3.6-5.2-3.6-8.6
						v-67.1c0-15.3-5.3-28.3-15.8-38.7c-10.5-10.4-23.5-15.7-38.8-15.7c-15.2,0-28.2,5.3-38.7,15.7c-10.4,10.4-15.7,23.4-15.7,38.7
						v51.1c0,6.2,2,11.3,5.8,15.2c3.9,3.9,9,5.9,15.1,5.9c6,0,11.1-2,15.1-5.9c4-3.9,6-9,6-15.2v-51.1c0-3.4,1.2-6.2,3.6-8.5
						c2.4-2.3,5.3-3.5,8.8-3.5c3.4,0,6.1,1.1,8.5,3.5c2.5,2.5,3.7,5.3,3.7,8.5l0.4,56.6v10.5c0,4.4,0.3,8.5,1,12.1H500.5h-0.9
						c-4,0-7.8-1.3-9.9-3.5c-2.5-2.5-3.7-5.3-3.7-8.6v-26.6c0-16-5.7-29.2-16.9-39.5c8.1-9.8,12.2-21.3,12.2-34.3
						c0-6.2-2-11.3-6-15.2c-4-3.9-9.1-5.9-15.2-5.9c-13.4,0-21.1,7.8-21.1,21.5c0,3.4-1.1,6-3.6,8.4c-2.3,2.3-5,3.4-8.1,3.4
						c-0.1,0-0.3,0-0.4,0l-3.9-0.1v-57.9c0-6.2-2-11.3-6-15.3c-4-4-9.1-6-15.3-6c-6.1,0-11.1,2-15.1,6.1c-3.8,3.9-5.7,9-5.7,15.2
						v130.1c0,6.2,1.9,11.3,5.8,15.2c3.9,3.9,9,5.9,15.1,5.9c6,0,11.1-2,15.1-5.9c4-3.9,6-9,6-15.2V238h8.7c3.4,0,6.3,1.2,8.8,3.6
						c2.3,2.3,3.5,5.2,3.5,8.7v26.6c0,4.2,0.4,8.3,1.2,12.1h-51.5h-1.1c-4.4,0-9.5-1.5-11.3-3.4c-2.2-2.3-3.2-5-3.2-8.7V172.7
						c0-17.6-6.3-32.8-18.7-45.1C347.1,115.4,331.9,109.3,314,109.3L314,109.3z M293,211.9v-39.2c0-5.9,2-10.8,6.1-14.9
						c4.1-4.1,9-6.1,14.9-6.1c5.9,0,10.8,2,15,6.2c4.2,4.1,6.2,9,6.2,14.9c0,5.9-2,10.8-6.2,15c-4.2,4.2-9.1,6.2-15,6.2
						c-6.1,0-11.2,2-15.2,5.9C295.5,203.1,293.6,207.1,293,211.9L293,211.9z"/>
				</g>
			</g>
		</g>
		<g id="XMLID_26_">
			<linearGradient id="XMLID_91_" gradientUnits="userSpaceOnUse" x1="811.0664" y1="326.26" x2="811.0664" y2="493.4671">
				<stop  offset="0" style="stop-color:#E0AE12"/>
				<stop  offset="0.3942" style="stop-color:#DEAC12"/>
				<stop  offset="0.3994" style="stop-color:#DEAC12"/>
				<stop  offset="0.9224" style="stop-color:#DEAC12"/>
				<stop  offset="1" style="stop-color:#DEAC12"/>
				<stop  offset="1" style="stop-color:#D9A812"/>
				<stop  offset="1" style="stop-color:#CA9C10"/>
				<stop  offset="1" style="stop-color:#B1890E"/>
				<stop  offset="1" style="stop-color:#8E6E0C"/>
				<stop  offset="1" style="stop-color:#614C08"/>
				<stop  offset="1" style="stop-color:#2C2204"/>
				<stop  offset="1" style="stop-color:#000000"/>
			</linearGradient>
			<path id="XMLID_178_" class="st20" d="M811.1,460.3c-23.2,0-43.2-8.2-59.3-24.3c-16.1-16.1-24.3-36.1-24.3-59.3
				c0-23.2,8.2-43.2,24.3-59.3c16.1-16.1,36.1-24.3,59.3-24.3c23.2,0,43.2,8.2,59.3,24.3c16.1,16.1,24.3,36.1,24.3,59.3
				c0,23.2-8.2,43.2-24.3,59.3S834.3,460.3,811.1,460.3z M811.1,329.5c-13.6,0-24.6,4.4-33.7,13.5c-9.1,9.1-13.5,20.1-13.5,33.7
				c0,13.4,4.5,24.4,13.6,33.6c9.2,9.2,20.2,13.6,33.6,13.6c13.4,0,24.4-4.5,33.6-13.6c9.2-9.2,13.6-20.2,13.6-33.6
				s-4.5-24.4-13.6-33.6C835.4,333.9,824.5,329.5,811.1,329.5z"/>
			<path id="XMLID_172_" class="st8" d="M811.1,296.1c22.5,0,41.6,7.8,57.2,23.4c15.6,15.6,23.4,34.7,23.4,57.2s-7.8,41.6-23.4,57.2
				c-15.6,15.6-34.7,23.4-57.2,23.4c-22.5,0-41.6-7.8-57.2-23.4c-15.6-15.6-23.4-34.7-23.4-57.2s7.8-41.6,23.4-57.2
				C769.5,303.9,788.6,296.1,811.1,296.1 M811.1,426.9c14.1,0,26-4.8,35.7-14.5s14.5-21.6,14.5-35.7c0-14.1-4.8-26-14.5-35.7
				c-9.7-9.7-21.6-14.5-35.7-14.5c-14.3,0-26.2,4.8-35.8,14.4c-9.6,9.6-14.4,21.5-14.4,35.8c0,14.1,4.8,26,14.5,35.7
				C785.1,422,797,426.9,811.1,426.9 M811.1,290.1c-24.1,0-44.7,8.5-61.4,25.2c-16.7,16.7-25.2,37.4-25.2,61.4
				c0,24.1,8.5,44.7,25.2,61.4c16.7,16.7,37.4,25.2,61.4,25.2c24.1,0,44.7-8.5,61.4-25.2c16.7-16.7,25.2-37.4,25.2-61.4
				c0-24.1-8.5-44.7-25.2-61.4C855.8,298.5,835.1,290.1,811.1,290.1L811.1,290.1z M811.1,420.9c-12.6,0-22.9-4.2-31.4-12.8
				c-8.6-8.6-12.8-18.9-12.8-31.4c0-12.7,4.1-23,12.7-31.6c8.5-8.5,18.8-12.7,31.6-12.7c12.6,0,22.9,4.2,31.4,12.8
				c8.6,8.6,12.8,18.9,12.8,31.4s-4.2,22.9-12.8,31.4C833.9,416.7,823.6,420.9,811.1,420.9L811.1,420.9z"/>
		</g>
		<g id="XMLID_2_">
			<linearGradient id="XMLID_138_" gradientUnits="userSpaceOnUse" x1="616.8799" y1="332.3842" x2="616.8799" y2="484.0642">
				<stop  offset="0" style="stop-color:#E0AE12"/>
				<stop  offset="0.8587" style="stop-color:#E0AE12"/>
				<stop  offset="1" style="stop-color:#E0AE12"/>
			</linearGradient>
			<path id="XMLID_156_" class="st21" d="M575.6,459.8c-16.8,0-20.3-8.7-20.3-16.1c0-6.9,3.6-12.8,10.8-17.6
				c8.7-5.7,18.6-12.5,29.4-20.4c12-8.6,21.7-16.5,29-23.4c11.8-11.2,17.8-20.9,17.8-28.9c0-6.7-2.3-12.3-7.1-17
				c-4.8-4.7-10.4-7-17.1-7c-6.7,0-12.3,2.3-17,7c-4.7,4.7-7,10.3-7,17c0,5.3-1.7,9.7-5.2,13.2c-3.4,3.4-7.8,5.2-13.2,5.2
				c-5.3,0-9.7-1.7-13.1-5.2c-3.3-3.4-5-7.8-5-13.1c0-17,5.9-31.4,17.4-43c11.6-11.6,26-17.4,43-17.4c17,0,31.5,5.9,43.1,17.4
				c11.6,11.6,17.5,26,17.5,43c0,15.1-6.2,29.8-18.3,43.8c-5.8,6.7-15.3,15.5-28.4,26.1h28.4c5.3,0,9.7,1.7,13.2,5.2
				c3.4,3.4,5.2,7.9,5.2,13.2c0,5.3-1.7,9.7-5.2,13.1c-3.4,3.3-7.8,5-13.1,5H575.6z"/>
			<path id="XMLID_153_" class="st8" d="M617.9,296.1c16.2,0,29.9,5.5,41,16.5c11.1,11,16.7,24.7,16.7,40.9
				c0,14.4-5.9,28.4-17.6,41.9c-6.1,7.1-16.5,16.5-31.1,28.2c-1.2,0.9-0.5,2.8,1,2.8h32.4c4.5,0,8.2,1.4,11,4.3
				c2.8,2.9,4.3,6.5,4.3,11s-1.4,8.1-4.3,10.9c-2.9,2.8-6.5,4.2-11,4.2h-84.7c-11.6,0-17.3-4.4-17.3-13.1c0-5.9,3.2-10.9,9.5-15.1
				c8.7-5.7,18.5-12.5,29.5-20.5c12.2-8.7,21.9-16.6,29.3-23.6c12.5-11.9,18.7-22.2,18.7-31.1c0-7.5-2.7-13.9-8-19.1
				c-5.3-5.3-11.7-7.9-19.3-7.9c-7.5,0-13.9,2.6-19.1,7.9c-5.3,5.3-7.9,11.6-7.9,19.1c0,4.5-1.4,8.2-4.3,11c-2.9,2.9-6.5,4.3-11,4.3
				s-8.1-1.4-10.9-4.3c-2.8-2.8-4.2-6.5-4.2-11c0-16.2,5.5-29.8,16.5-40.9C588.1,301.6,601.7,296.1,617.9,296.1 M617.9,290.1
				c-17.8,0-33,6.2-45.1,18.3c-12.1,12.1-18.3,27.3-18.3,45.1c0,6.1,2,11.2,5.9,15.2c3.9,4,9.1,6.1,15.2,6.1c6.1,0,11.3-2,15.3-6
				c4-4,6-9.1,6-15.3c0-5.9,2-10.8,6.1-14.9c4.1-4.1,9-6.1,14.9-6.1c5.9,0,10.8,2,15,6.2c4.2,4.1,6.2,9,6.2,14.9
				c0,7-5.8,16.2-16.8,26.7c-7.1,6.8-16.8,14.6-28.6,23.1c-10.8,7.9-20.7,14.7-29.3,20.3c-10.1,6.7-12.2,14.6-12.2,20.1
				c0,5.7,2.3,19.1,23.3,19.1h84.7c6.1,0,11.2-2,15.2-5.9c4-3.9,6.1-9.1,6.1-15.2c0-6.1-2-11.3-6-15.3c-4-4-9.2-6-15.3-6h-20
				c10-8.4,17.4-15.4,22.3-21.1c12.6-14.6,19-30,19-45.8c0-17.8-6.2-33-18.4-45.1C650.9,296.2,635.7,290.1,617.9,290.1L617.9,290.1z
				"/>
		</g>
		<g id="Layer_2_copy">
		</g>
	</g>
</g>
</svg>
