<?xml version="1.0" encoding="utf-8"?>
<!-- Generator: Adobe Illustrator 19.0.0, SVG Export Plug-In . SVG Version: 6.00 Build 0)  -->
<svg version="1.1" id="Layer_1" xmlns="http://www.w3.org/2000/svg" xmlns:xlink="http://www.w3.org/1999/xlink" x="0px" y="0px"
	 viewBox="0 0 1423.2 1410.7" style="enable-background:new 0 0 1423.2 1410.7;" xml:space="preserve">
<style type="text/css">
	.st0{fill:#FFFFFF;}
	.st1{fill:#118FED;}
	.st2{fill:none;stroke:#000000;stroke-width:25;stroke-linecap:square;stroke-miterlimit:10;}
	.st3{fill:none;stroke:#000000;stroke-width:30;stroke-miterlimit:10;}
	.st4{fill:none;stroke:#000000;stroke-width:15;stroke-miterlimit:10;}
	.st5{fill:none;stroke:#000000;stroke-width:25;stroke-miterlimit:10;}
	.st6{fill:#FFFFFF;stroke:#000000;stroke-width:25;stroke-miterlimit:10;}
	.st7{fill:none;stroke:#000000;stroke-width:25;stroke-linecap:round;stroke-miterlimit:10;}
	.st8{fill:#FFFFFF;stroke:#000000;stroke-width:25;stroke-linecap:round;stroke-linejoin:bevel;stroke-miterlimit:10;}
	.st9{fill:#FFFFFF;stroke:#000000;stroke-width:25;stroke-linecap:round;stroke-miterlimit:10;}
	.st10{fill:#FFFFFF;stroke:#000000;stroke-width:25;stroke-linecap:square;stroke-miterlimit:10;}
	.st11{fill:none;stroke:#000000;stroke-width:10;stroke-linecap:round;stroke-miterlimit:10;}
</style>
<path class="st0" d="M682.4,1382.3l-545.1-314.7c-18.7-10.8-30.2-30.7-30.2-52.2V386c0-21.5,11.5-41.5,30.2-52.2L682.4,19.1
	c18.7-10.8,41.7-10.8,60.3,0l545.1,314.7c18.7,10.8,30.2,30.7,30.2,52.2v629.4c0,21.5-11.5,41.5-30.2,52.2l-545.1,314.7
	C724.1,1393.1,701.1,1393.1,682.4,1382.3z"/>
<path class="st1" d="M683.5,1339.4l-506.8-292.6c-17.4-10-28-28.5-28-48.6V413.1c0-20,10.7-38.5,28-48.6L683.5,71.9
	c17.4-10,38.7-10,56.1,0l506.8,292.6c17.4,10,28,28.5,28,48.6v585.2c0,20-10.7,38.5-28,48.6l-506.8,292.6
	C722.2,1349.4,700.8,1349.4,683.5,1339.4z"/>
<rect x="864.5" y="256" class="st0" width="37" height="197"/>
<rect x="658" y="449.7" class="st0" width="102.5" height="44.3"/>
<path class="st2" d="M898.7,251h12v210h-12c-27.5,0-50-22.5-50-50V301C848.7,273.5,871.2,251,898.7,251z"/>
<polygon class="st0" points="255,564 483,564 483,464 255,409 "/>
<rect x="966" y="464" class="st0" width="61" height="100"/>
<path class="st3" d="M681.4,1387.3l-545.1-314.7c-18.7-10.8-30.2-30.7-30.2-52.2V391c0-21.5,11.5-41.5,30.2-52.2L681.4,24.1
	c18.7-10.8,41.7-10.8,60.3,0l545.1,314.7c18.7,10.8,30.2,30.7,30.2,52.2v629.4c0,21.5-11.5,41.5-30.2,52.2l-545.1,314.7
	C723.1,1398.1,700.1,1398.1,681.4,1387.3z"/>
<path class="st4" d="M710,1393"/>
<g>
	<circle class="st5" cx="710" cy="1209.5" r="46"/>
	<line class="st5" x1="710" y1="1163.5" x2="710" y2="1127.5"/>
	<line class="st5" x1="677.5" y1="1177" x2="652" y2="1151.5"/>
	<line class="st5" x1="664" y1="1209.5" x2="628" y2="1209.5"/>
	<line class="st5" x1="677.5" y1="1242" x2="652" y2="1267.5"/>
	<line class="st5" x1="710" y1="1255.5" x2="710" y2="1291.5"/>
	<line class="st5" x1="742.5" y1="1242" x2="768" y2="1267.5"/>
	<line class="st5" x1="756" y1="1209.5" x2="792" y2="1209.5"/>
	<line class="st5" x1="742.5" y1="1177" x2="768" y2="1151.5"/>
</g>
<rect x="1080.7" y="419" class="st0" width="79.3" height="142"/>
<path class="st6" d="M1383,901H40c-15.4,0-28-12.6-28-28V592c0-15.4,12.6-28,28-28h1343c15.4,0,28,12.6,28,28v281
	C1411,888.4,1398.4,901,1383,901z"/>
<g>
	<path d="M325.2,828.6h-41.4V754h-75.9v74.6h-41.3V645.4h41.3v73.1h75.9v-73.1h41.4V828.6z"/>
	<path d="M528.3,828.6h-45l-13-40.8h-65.2l-12.9,40.8h-44.7l66.7-183.2h48.9L528.3,828.6z M460.8,756.1l-19.7-61.6
		c-1.4-4.6-2.5-10.1-3.1-16.5h-1c-0.4,5.4-1.5,10.7-3.2,16l-19.9,62.1H460.8z"/>
	<path d="M703.4,828.6h-52.1L597.9,749c-1-1.5-2.6-4.9-4.9-10.1h-0.6v89.7h-41.3V645.4h41.3V732h0.6c1-2.4,2.7-5.8,5.1-10.2
		l50.6-76.4h49.2L634,732.8L703.4,828.6z"/>
	<path d="M874.6,828.6h-47.4l-28.5-47.1c-2.1-3.6-4.2-6.8-6.1-9.6c-2-2.8-3.9-5.2-5.9-7.2c-2-2-4.1-3.5-6.3-4.6
		c-2.2-1.1-4.5-1.6-7.1-1.6h-11.1v70.1h-41.3V645.4h65.4c44.5,0,66.7,16.6,66.7,49.8c0,6.4-1,12.3-2.9,17.7
		c-2,5.4-4.7,10.3-8.3,14.6s-7.9,8.1-13,11.2c-5.1,3.2-10.7,5.6-16.9,7.4v0.5c2.7,0.9,5.4,2.2,7.9,4.2c2.6,1.9,5,4.2,7.4,6.7
		c2.4,2.6,4.7,5.3,6.8,8.2c2.2,2.9,4.2,5.8,5.9,8.6L874.6,828.6z M762.2,676.3v51h17.9c8.9,0,16-2.6,21.3-7.7
		c5.5-5.2,8.2-11.6,8.2-19.3c0-16-9.6-24-28.7-24H762.2z"/>
	<path d="M966.6,831.8c-26.2,0-47.6-8.5-64.1-25.6c-16.5-17.1-24.8-39.3-24.8-66.8c0-29,8.4-52.4,25.2-70.3
		c16.8-17.9,39-26.8,66.7-26.8c26.1,0,47.3,8.6,63.4,25.7c16.1,17.1,24.2,39.7,24.2,67.7c0,28.8-8.4,52-25.1,69.6
		S993.5,831.8,966.6,831.8z M968.4,677.8c-14.5,0-26,5.4-34.5,16.3c-8.5,10.9-12.8,25.2-12.8,43.1c0,18.1,4.3,32.5,12.8,43.1
		c8.5,10.6,19.7,15.8,33.5,15.8c14.2,0,25.5-5.1,33.9-15.4c8.3-10.3,12.5-24.5,12.5-42.7c0-19-4-33.8-12.1-44.3
		C993.5,683.1,982.5,677.8,968.4,677.8z"/>
	<path d="M1252.4,828.6h-41.7l-75.5-115.1c-4.4-6.7-7.5-11.8-9.2-15.2h-0.5c0.7,6.5,1,16.4,1,29.6v100.7h-39V645.4h44.5l72.7,111.5
		c3.3,5,6.4,10,9.2,14.9h0.5c-0.7-4.3-1-12.6-1-25.2V645.4h39V828.6z"/>
</g>
<g>
	<path class="st0" d="M407,1053.5l-45-20.5v-7.8l45-21.5v11.5l-32.1,13.7v0.3l32.1,12.9V1053.5z"/>
	<path class="st0" d="M464.3,987.5l-33.7,80.5H417l33.5-80.5H464.3z"/>
	<path class="st0" d="M531.7,1056.6h-17l-4.9-15.4h-24.6l-4.9,15.4h-16.9l25.1-69.1h18.4L531.7,1056.6z M506.3,1029.3l-7.4-23.2
		c-0.5-1.7-0.9-3.8-1.2-6.2h-0.4c-0.2,2-0.6,4-1.2,6l-7.5,23.4H506.3z"/>
	<path class="st0" d="M597.8,1056.6h-19.7l-20.1-30c-0.4-0.6-1-1.8-1.8-3.8h-0.2v33.8h-15.6v-69.1h15.6v32.7h0.2
		c0.4-0.9,1-2.2,1.9-3.9l19.1-28.8h18.5l-24.1,32.9L597.8,1056.6z"/>
	<path class="st0" d="M662.3,1056.6h-17.9l-10.7-17.8c-0.8-1.3-1.6-2.6-2.3-3.6c-0.7-1.1-1.5-2-2.2-2.7c-0.8-0.8-1.5-1.3-2.4-1.7
		c-0.8-0.4-1.7-0.6-2.7-0.6h-4.2v26.4h-15.6v-69.1H629c16.8,0,25.1,6.3,25.1,18.8c0,2.4-0.4,4.6-1.1,6.7c-0.7,2-1.8,3.9-3.1,5.5
		s-3,3.1-4.9,4.2c-1.9,1.2-4,2.1-6.4,2.8v0.2c1,0.3,2,0.8,3,1.6c1,0.7,1.9,1.6,2.8,2.5c0.9,1,1.8,2,2.6,3.1c0.8,1.1,1.6,2.2,2.2,3.3
		L662.3,1056.6z M619.9,999.2v19.2h6.7c3.3,0,6-1,8-2.9c2.1-2,3.1-4.4,3.1-7.3c0-6-3.6-9.1-10.8-9.1H619.9z"/>
	<path class="st0" d="M697,1057.8c-9.9,0-18-3.2-24.2-9.7c-6.2-6.4-9.3-14.8-9.3-25.2c0-10.9,3.2-19.8,9.5-26.5
		c6.3-6.7,14.7-10.1,25.1-10.1c9.9,0,17.8,3.2,23.9,9.7s9.1,15,9.1,25.5c0,10.9-3.2,19.6-9.5,26.3
		C715.4,1054.5,707.2,1057.8,697,1057.8z M697.7,999.7c-5.5,0-9.8,2-13,6.1c-3.2,4.1-4.8,9.5-4.8,16.3c0,6.8,1.6,12.3,4.8,16.2
		c3.2,4,7.4,6,12.6,6c5.4,0,9.6-1.9,12.8-5.8c3.1-3.9,4.7-9.2,4.7-16.1c0-7.2-1.5-12.7-4.6-16.7C707.2,1001.7,703,999.7,697.7,999.7
		z"/>
	<path class="st0" d="M804.8,1056.6h-15.7l-28.5-43.4c-1.7-2.5-2.8-4.4-3.5-5.7h-0.2c0.3,2.4,0.4,6.2,0.4,11.2v38h-14.7v-69.1h16.8
		l27.4,42.1c1.3,1.9,2.4,3.8,3.5,5.6h0.2c-0.3-1.6-0.4-4.8-0.4-9.5v-38.2h14.7V1056.6z"/>
	<path class="st0" d="M833.5,1044.4l-7.1,24.4h-11.8l4.9-24.4H833.5z"/>
	<path class="st0" d="M903.7,1057.8c-9.9,0-18-3.2-24.2-9.7c-6.2-6.4-9.3-14.8-9.3-25.2c0-10.9,3.2-19.8,9.5-26.5
		c6.3-6.7,14.7-10.1,25.1-10.1c9.9,0,17.8,3.2,23.9,9.7s9.1,15,9.1,25.5c0,10.9-3.2,19.6-9.5,26.3
		C922.1,1054.5,913.9,1057.8,903.7,1057.8z M904.4,999.7c-5.5,0-9.8,2-13,6.1c-3.2,4.1-4.8,9.5-4.8,16.3c0,6.8,1.6,12.3,4.8,16.2
		c3.2,4,7.4,6,12.6,6c5.4,0,9.6-1.9,12.8-5.8c3.1-3.9,4.7-9.2,4.7-16.1c0-7.2-1.5-12.7-4.6-16.7S909.7,999.7,904.4,999.7z"/>
	<path class="st0" d="M1009.1,1056.6h-15.6v-28.1h-28.6v28.1h-15.6v-69.1h15.6v27.6h28.6v-27.6h15.6V1056.6z"/>
	<path class="st0" d="M1074.4,1032.4l-45,20.5v-11.4l32.2-12.9v-0.2l-32.2-13.8v-11.5l45,21.4V1032.4z"/>
</g>
<g>
	<line class="st7" x1="966" y1="564" x2="966" y2="464"/>
	<line class="st7" x1="966" y1="464" x2="1027" y2="464"/>
	<line class="st7" x1="1027" y1="464" x2="1027" y2="564"/>
</g>
<g>
	<line class="st7" x1="1070.5" y1="564" x2="1070.5" y2="481.5"/>
	<line class="st7" x1="1070.5" y1="481.5" x2="1171" y2="481.5"/>
	<line class="st7" x1="1171" y1="481.5" x2="1171" y2="564"/>
	<line class="st7" x1="1154" y1="481.5" x2="1154" y2="419"/>
	<line class="st7" x1="1154" y1="419" x2="1088" y2="419"/>
	<line class="st7" x1="1088" y1="419" x2="1088" y2="481.5"/>
</g>
<line class="st2" x1="1121" y1="419" x2="1121" y2="368.5"/>
<g>
	<g>
		<line class="st8" x1="255" y1="564" x2="255" y2="409"/>
		<line class="st8" x1="255" y1="409" x2="483" y2="464"/>
		<line class="st8" x1="483" y1="464" x2="483" y2="564"/>
		<line class="st8" x1="405" y1="445.2" x2="405" y2="564"/>
		<line class="st8" x1="361.1" y1="434.6" x2="361.1" y2="564"/>
		<line class="st8" x1="361.1" y1="469" x2="255" y2="469"/>
		<line class="st8" x1="405" y1="492" x2="483" y2="492"/>
	</g>
	<line class="st9" x1="255" y1="564" x2="483" y2="564"/>
</g>
<path class="st10" d="M931.7,356c0,51.7-101.5,93.7-226.8,93.7S478.1,407.7,478.1,356s101.5-93.7,226.8-93.7S931.7,304.3,931.7,356z
	"/>
<g>
	<line class="st7" x1="658" y1="494" x2="760.5" y2="494"/>
	<line class="st7" x1="760.5" y1="494" x2="771" y2="447.6"/>
	<line class="st7" x1="658" y1="494" x2="647.5" y2="447.6"/>
</g>
<g>
	<g>
		<path class="st11" d="M478.1,356c0-30.4,101.5-55,226.8-55"/>
		<path class="st11" d="M931.7,356c0-30.4-101.5-55-226.8-55"/>
	</g>
	<g>
		<path class="st11" d="M931.7,356c0,30.4-101.5,55-226.8,55"/>
		<path class="st11" d="M478.1,356c0,30.4,101.5,55,226.8,55"/>
	</g>
</g>
</svg>
